<svg width="101.000000" height="111.000000" viewBox="0 0 101 111" fill="none" xmlns="http://www.w3.org/2000/svg" xmlns:xlink="http://www.w3.org/1999/xlink">
	<desc>
			Created with Pixso.
	</desc>
	<defs>
		<clipPath id="clip1_124">
			<rect id="Frame" width="101.000000" height="111.000000" fill="white" fill-opacity="0"/>
		</clipPath>
	</defs>
	<g clip-path="url(#clip1_124)">
		<path id="Vector" d="M46.51 91.66C47.17 91.88 47.23 92.42 47.19 93C47.11 93.04 47 93.06 46.96 93.12C46.9 93.2 46.98 93.28 47.07 93.22C47.13 93.17 47.14 93.06 47.17 92.98C47.6 93.12 47.78 93.67 47.71 93.84C47.45 94.53 47.9 94.39 48.1 94.17C48.93 93.28 49.96 93.8 50.9 93.68C51.2 94.55 51.83 93.9 52.31 93.97C52.79 94.05 53.29 93.89 53.76 94.12C53.85 94.17 53.95 94.28 54.03 94.27C54.83 94.19 55.47 93.49 56.44 93.93C57.24 94.3 58.16 93.89 58.94 93.55C59.38 93.36 59.79 93.41 60.2 93.31C60.87 93.15 61.4 93.98 62.2 93.46C62.6 93.2 63.34 92.97 63.97 93.28C64.14 93.36 64.29 93.22 64.34 93.05C64.49 92.58 64.75 92.63 65.07 92.86C65.36 93.07 65.76 93.09 66.02 92.96C66.66 92.63 67.25 92.24 68.01 92.45C68.49 91.73 69.56 92.29 70 91.51C70.05 91.43 70.18 91.39 70.28 91.35C70.82 91.17 71.48 91.66 71.96 91.05C72.38 90.51 73.11 90.61 73.61 90.3C74.15 89.96 74.75 90 75.3 89.87C76.27 89.65 77.33 89.28 78.22 90.15C78.47 90.39 78.57 90.07 78.75 90.05C79.46 89.95 79.8 90.2 79.88 90.85C79.89 90.9 79.88 90.96 79.88 91.01C79.85 91.56 79.82 92.12 79.79 92.67C80.61 92.48 81.48 92.39 82.25 92.06C82.64 91.89 82.96 91.61 83.43 91.66C83.63 91.68 83.9 91.67 84.06 91.56C85.23 90.7 86.58 91.08 87.86 91C88.45 90.97 88.8 91.25 88.81 91.87C88.82 92.3 89.52 92.7 88.85 93.16C89 93.31 89.21 93.61 89.3 93.58C89.59 93.48 89.84 93.12 90.11 93.56C90.36 93.98 90.57 94.45 90.45 94.96C90.4 95.16 90.24 95.33 90.15 95.53C89.8 96.28 89.8 96.28 90.63 96.31C90.85 96.32 91 96.38 91.14 96.61C91.47 97.16 91.59 97.78 91.39 98.33C91.32 98.57 90.72 98.58 90.51 99.03C90.34 99.39 89.95 99.69 90.73 99.63C91.33 99.57 91.49 99.83 91.47 100.39C91.46 100.94 91.46 101.46 91.13 101.95C90.85 102.38 90.82 103.02 90.08 102.97C90.04 102.96 89.96 103.01 89.96 103.04C89.76 104.24 88.67 104.05 87.91 104.38C87.32 104.64 86.64 104.72 86.26 105.34L84.71 105.69C84.38 105.53 84.22 105.8 84.01 105.96C82.76 106.98 82.15 107.15 80.54 106.96C80.17 106.92 79.8 106.85 79.46 107.17C78.91 107.7 78.31 108.12 77.49 107.62C77.32 107.51 77.07 107.62 76.94 107.84C76.86 107.98 76.72 108.22 76.69 108.21C76.11 108.01 75.66 107.93 75.12 108.46C74.77 108.81 74.08 108.73 73.59 108.41C73.47 108.33 73.44 108.37 73.31 108.42C72.43 108.79 72.42 108.79 71.43 108.61C70.59 108.46 69.82 108.84 69.1 109.11C68.62 109.29 68.34 109.6 67.95 109.07C67.78 108.84 67.69 109.14 67.55 109.16C66.56 109.34 65.63 110.01 64.55 109.59C64.01 109.39 63.84 110.52 63.2 109.96C62.65 110.4 62.14 110.18 61.54 110.05C61.16 109.97 60.4 109.69 60.06 110.4C60 110.53 59.87 110.56 59.81 110.46C59.39 109.73 58.85 110.12 58.28 110.24C57.7 110.35 57.04 110.15 56.48 110.3C55.93 110.44 55.59 110.49 55.05 110.14C54.53 109.79 53.82 110.17 53.34 110.57C52.91 110.93 52.61 111.02 52.26 110.56C52.03 110.25 51.6 110.12 51.39 110.29C50.84 110.73 50.09 110.34 49.69 110.69C49.18 111.15 48.73 110.56 48.21 110.86C47.74 111.12 47.03 110.92 46.42 110.94C45.17 110.98 45.2 110.9 44.26 110.54C43.78 110.35 43.17 110.61 42.64 110.73C42.44 110.78 42.2 111.04 42.06 110.87C41.37 110.08 40.62 110.62 39.92 110.77C39.64 110.83 39.45 110.92 39.2 110.73C38.55 110.24 37.77 110.21 37.01 110.27C35.49 110.38 33.95 109.93 32.47 110.56C31.96 110.05 31.21 110.52 30.77 110.22C30.21 109.85 29.65 110.53 29.16 110.03C29.01 109.89 28.63 109.93 28.37 109.93C26.68 109.99 25.1 109.32 23.42 109.27C23.17 109.26 23.03 109.1 22.87 108.95C22.71 108.81 22.6 108.56 22.34 108.63C21.73 108.79 21.1 109.04 20.56 108.54C20.04 108.06 19.39 108.44 18.85 108.18C18.27 107.9 17.65 107.71 17.08 107.42C16.77 107.26 16.6 107.4 16.35 107.51C15.83 107.73 15.21 107.77 14.79 107.42C13.96 106.71 13.06 106.84 12.19 107.1C11.8 107.23 11.59 107.23 11.35 106.95C10.91 106.45 10.08 106.69 9.68 106.03C9.56 105.83 9.18 105.9 8.92 106.05C8.3 106.43 7.59 105.88 6.95 106.24C6.86 106.29 6.56 106.17 6.53 106.08C6.28 105.2 5.46 105.32 4.86 105.12C3.65 104.71 2.7 103.94 1.83 103.04C1.75 102.96 1.63 102.81 1.64 102.8C2.46 101.86 1.3 101.52 1.03 100.96C0.61 100.08 0.38 99.2 0.15 98.26C-0.08 97.31 0.73 96.37 0 95.52C-0.02 95.51 0.02 95.43 0.05 95.4C1.33 94.25 1.22 92.27 2.56 91.16C2.79 90.98 2.85 90.74 2.91 90.46C3.01 90.06 3.17 89.61 3.45 89.31C4.14 88.61 4.73 87.9 4.99 86.87C5.17 86.17 6.13 86.14 6.72 85.77C6.91 85.65 7.26 85.21 7.69 85.67C8.06 86.07 8.26 86.46 8.16 86.99C8.14 87.09 8.1 87.19 8.03 87.27C6.66 88.5 5.73 90.04 4.74 91.57C4.37 92.15 3.54 92.49 3.45 93.28C3.37 94.05 2.49 94.36 2.49 95.16C2.49 95.38 2.14 95.62 2.25 95.91C2.52 96.64 1.94 97.41 2.26 98.05C2.63 98.78 2.48 99.65 3.04 100.32C3.31 100.64 3.42 101.09 3.77 101.38C4.02 101.6 4.43 101.86 4.42 102.1C4.38 103.08 5.24 102.94 5.72 103.24C6.27 103.58 7.18 102.78 7.55 103.79C8.18 103.97 8.8 104.23 9.49 103.99C9.57 103.97 9.69 104.04 9.78 104.1C10.1 104.31 10.28 104.89 10.86 104.46C11.28 104.15 11.45 105.29 12.03 104.71C12.12 104.63 12.53 105.38 13.03 105.05C13.34 105.43 13.91 105.46 14.22 105.46C15.07 105.45 15.89 105.47 16.73 105.57C17.21 105.62 17.74 105.21 18.23 105.57C18.69 105.9 19.35 105.56 19.74 106.08C19.78 106.13 19.91 106.16 19.99 106.15C21 105.93 21.5 105.82 21.89 106.03C22.31 106.24 22.65 106.45 23.08 106.1C23.38 105.87 23.7 106.26 23.75 106.33C24.16 107.01 24.79 107.1 25.42 106.93C26.33 106.69 27.19 106.94 28.02 107.16C29.11 107.45 30.25 107.52 31.35 107.76C31.65 107.82 31.9 107.28 32.42 107.56C32.84 107.78 33.32 107.94 33.73 108.18C34.23 108.46 34.61 108.17 34.93 107.94C35.37 107.62 35.78 107.76 36.05 108.01C36.35 108.3 36.47 108.72 36.77 108.03C36.81 107.93 37.05 107.96 37.2 108.07C37.7 108.43 38.35 108.45 38.75 108.16C39.27 107.79 39.59 108.32 39.93 108.22C40.33 108.1 40.58 108.31 40.88 108.34C41.55 108.42 42.1 108.97 42.7 108.9C43.3 108.84 43.95 108.94 44.5 108.74C44.98 108.57 45.43 108.91 45.68 108.82C46.07 108.67 46.56 108.74 46.88 108.41C46.98 108.31 47.05 108.33 47.16 108.43C47.85 109.06 48.65 108.53 49.4 108.6C49.92 108.65 50.5 109.02 50.96 108.35C51.09 108.17 51.46 108.22 51.71 108.39C52.2 108.72 52.57 108.77 52.85 108.1C52.97 107.83 53.4 107.86 53.58 108.02C53.91 108.31 54.38 108.13 54.62 108.38C54.93 108.69 55.16 108.28 55.47 108.44C56.08 108.76 56.25 107.36 56.88 107.93C57.45 108.44 58.08 107.87 58.62 108.23C58.78 108.34 59.06 108.23 59.03 107.91C58.99 107.48 59.17 107.03 58.88 106.62C58.36 105.9 58.49 105.14 58.66 104.31C58.77 103.77 58.66 103.21 58.36 102.76C58.01 102.22 57.78 101.71 58.49 101.28C58.72 101.14 58.52 101.04 58.5 100.91C58.36 99.6 57.97 98.33 58.18 96.99C58.22 96.77 58.07 96.51 58.26 96.26C58.52 95.92 58.47 95.45 58.3 95.17C57.97 94.66 57.67 95.31 57.32 95.33C56.15 95.42 54.98 95.56 53.86 95.96C53.67 96.03 53.36 96.05 53.22 95.94C52.64 95.51 52.06 96.16 51.42 95.85C50.77 95.54 50.01 95.22 49.26 95.89C49.01 96.12 48.47 96.03 48.05 95.72C47.45 95.28 47.39 95.33 47.16 96.1C46.96 96.77 46.78 97.35 46.01 97.72C45.4 98.02 45 98.58 44.39 97.78C44.33 97.7 43.83 98.01 43.71 97.92C43.06 97.41 41.95 97.49 41.75 96.41C40.23 95.57 39.47 93.73 37.63 93.33C37.33 93.26 37.16 93.08 36.99 92.87C36.93 92.79 36.94 92.64 36.88 92.57C36.58 92.23 34.83 91.56 34.73 91.74C34.4 92.37 34.68 92.95 34.85 93.59C35.04 94.31 35.63 95.11 34.94 95.89C35.51 97.14 34.77 97.52 33.75 97.72C33.38 98.71 32.78 98.12 32.19 98C30.99 97.76 30.2 96.74 29.02 96.48C28.87 96.44 28.75 96.16 28.66 95.97C28.6 95.83 28.66 95.53 28.58 95.5C27.52 95.05 27.35 93.98 26.8 93.16C26.26 92.33 25.75 91.49 25.26 90.64C24.72 89.72 23.51 89.36 22.45 89.01C22.35 88.98 22.18 88.97 22.13 89.03C21.28 89.97 20.33 89.21 19.43 89.19C19.34 89.19 19.18 89.09 19.17 89.1C18.74 90.01 17.94 89.27 17.35 89.51C16.75 89.75 16.15 89.23 15.5 89.31C14.79 89.4 14.07 89.3 13.36 89.36C12.97 89.38 12.73 89.17 12.46 89C11.59 88.45 10.77 87.79 9.87 87.26C9.4 86.98 9.91 86.49 9.54 86.21C9.23 85.99 8.98 85.68 8.71 85.4C8.33 85.04 8.59 84.55 8.46 84.15C8.23 83.39 7.91 82.66 7.71 81.87C7.47 80.96 7.5 79.96 6.89 79.13C6.67 78.83 6.67 78.15 6.87 77.85C7.31 77.16 6.87 76.61 6.81 76C6.75 75.39 6.51 74.83 6.8 74.18C6.99 73.76 6.68 73.25 6.65 72.8C6.62 72.41 7.21 72.05 6.9 71.53C7.5 71.19 6.79 70.7 7.05 70.24C7.27 69.86 7.16 69.28 7.15 68.78C7.15 68.42 7.3 68.18 7.49 67.89C7.96 67.21 8.37 66.51 8.22 65.59C8.12 65 9.04 64.15 9.69 64.12C10.06 64.1 10.46 63.99 10.8 64.27C11.69 64.99 12.97 64.87 13.84 65.64C14.59 65.54 15.25 65.64 15.8 66.26C16.01 66.51 16.14 66.13 16.3 66.04C16.91 65.68 16.66 64.82 17.24 64.38C17.72 64.03 18.38 64.12 18.79 63.57C19.23 62.99 19.69 62.45 20.38 62.02C20.96 61.66 21.34 60.66 21.21 59.95C21.13 59.46 21.25 59.18 21.33 58.78C21.4 58.36 21.76 57.93 21.38 57.44C21.22 57.24 21.37 56.91 21.6 56.7C21.84 56.47 21.9 56.3 21.77 55.9C21.63 55.43 22.36 54.85 22.91 54.77C23.21 54.73 23.51 54.76 23.8 54.84C24.08 54.93 24.35 55.08 24.58 55.27C25.43 56 26.43 56.56 27.51 56.9C28.36 57.16 29.21 57.67 29.84 58.29C30.7 59.14 31.8 59.51 32.79 60.09C33.07 60.26 33.52 60.39 33.51 60.65C33.5 61.2 33.89 61.32 34.16 61.63C34.4 61.9 34.48 62.31 34.89 62.45C34.98 62.48 35.14 62.54 35.15 62.6C35.25 63.09 35.27 63.66 35.88 63.74C36.26 63.78 36.17 64.71 36.77 64.17C37.14 64.49 37.48 64.78 38.03 64.84C38.43 64.89 38.88 65.46 39.17 65.37C39.98 65.09 40.79 65.7 41.61 65.23C41.99 65.01 42.57 65.01 43.04 64.92C43.63 64.81 44.26 64.91 44.79 64.71C45.25 64.53 45.56 63.93 46.02 63.81C47.34 63.48 48.5 62.56 50 62.74C50.87 62.85 51.56 62.08 52.41 61.91C52.5 61.89 52.63 61.77 52.63 61.68C52.76 60.34 53.97 60.62 54.7 60.5C55.43 60.38 55.93 60.15 56.36 59.62C56.82 59.04 57.39 58.6 58.09 58.48C58.52 58.39 58.78 58.18 59.04 57.91C59.47 57.46 59.89 57.22 60.46 57.69C60.66 57.86 60.87 57.77 61.03 57.6C61.39 57.21 61.77 56.91 62.3 57.27C62.65 57.51 62.84 57.03 63.17 57.1C63.72 57.22 63.79 56.05 64.44 56.52C64.9 56.85 65.41 56.65 65.84 56.88C66.08 57 66.26 57.18 66.58 57C67.6 56.4 68.85 56.35 69.83 55.75C70.88 55.12 72.01 54.96 73.14 54.68C73.87 54.49 74.62 54.6 75.37 54.5C75.96 54.43 76.51 54.16 77.08 54.16C77.58 54.16 78.12 54.19 78.61 54.25C80.08 54.44 81.58 54.44 83.01 54.85C84.54 55.29 86.14 55.55 87.59 56.15C89.99 57.13 92.58 57.87 94.1 60.27C95.3 61.11 95.68 62.49 96.38 63.66C96.64 64.1 97.14 64.45 97.25 64.9C97.48 65.79 98.55 66.42 98.09 67.51C98.46 68.39 98.9 69.24 99.18 70.14C99.34 70.69 99.01 71.28 99.31 71.91C99.92 73.19 99.27 74.53 99.28 75.85C98.81 76.21 99.25 76.58 99.37 76.83C99.55 77.18 100.23 77.42 100.21 77.68C100.18 78.11 100.03 78.44 100.47 78.74C100.67 78.88 100.7 79.17 100.49 79.3C99.9 79.68 100.1 80.22 100.37 80.52C100.83 81.03 100.41 81.75 100.91 82.2C100.97 82.25 100.94 82.41 100.92 82.51C100.53 84.42 100.54 85.83 100.95 87.6C101 87.81 101.04 88.17 100.85 88.2C100.2 88.29 100.62 88.84 100.4 89.12C100.18 89.4 99.96 89.82 100 90.14C100.06 90.59 99.77 90.92 99.79 91.35C99.81 91.78 99.73 92.32 99.07 92.33C98.81 92.33 98.56 92.53 98.7 92.7C99.25 93.41 98.51 93.51 98.27 93.91C97.72 94.82 96.98 95.65 96.7 96.71C96.59 97.08 96.5 97.21 96.1 97.31C95.42 97.47 95.01 97.92 94.97 98.71C94.95 99.13 94.99 99.86 94.14 99.33C93.88 99.18 93.67 99.52 93.45 99.67C92.76 100.11 92.47 100.03 91.96 99.35C91.54 98.79 91.62 98.54 92.2 97.89C92.86 97.16 93.66 96.61 94.4 95.99C94.95 95.53 95.56 95.12 95.73 94.4C95.97 93.44 96.64 92.84 97.28 92.17C97.61 91.83 98.33 91.54 97.73 90.83C97.71 90.81 97.9 90.59 98.01 90.47C98.52 89.91 98.73 89.24 98.62 88.51C98.54 87.9 99.3 87.32 98.67 86.7C98.63 86.67 98.68 86.45 98.75 86.42C99.44 86.07 99.02 85.41 99.2 84.94C99.47 84.23 99.01 83.8 98.75 83.3C98.67 83.16 98.63 83 98.61 82.84C98.6 82.67 98.62 82.51 98.67 82.35C98.93 81.58 98.79 80.83 98.28 80.34C97.78 79.85 98.48 79.28 98.02 78.93C97.52 78.55 97.72 78.03 97.63 77.57C97.42 76.46 97.05 75.74 96.19 74.73C95.92 74.42 95.39 74.19 95.86 73.66C95.96 73.56 95.95 73.47 95.82 73.41C95.17 73.1 94.87 72.6 94.93 71.87C94.4 71.63 94.04 71.17 93.72 70.72C93.47 70.37 92.73 70.31 93.01 69.62C92.42 68.87 91.69 68.28 90.9 67.76C90.69 67.62 90.39 67.65 90.38 67.29C90.38 67.06 90.36 66.83 90.09 66.76C89.13 66.53 88.4 65.87 87.6 65.37C87.31 65.18 87.04 65.06 86.69 65.07C86.42 65.08 86.06 65.13 85.89 64.99C84.83 64.06 83.72 64.35 82.55 64.7C82.11 64.84 81.56 64.88 81.11 64.57C81 64.49 80.87 64.44 80.74 64.42C80.6 64.4 80.46 64.42 80.33 64.46C79.95 64.59 79.76 65.26 79.24 64.97C78.66 64.65 78.58 65.42 78.17 65.39C77.66 65.34 77.41 65.78 77.03 65.97C76.19 66.39 75.24 66.58 74.74 67.58C74.62 67.83 74.07 68.11 73.61 68.07C73.33 68.04 73.06 68.11 72.83 68.26C71.87 68.91 71.03 68.39 70.26 67.85C70.09 67.73 70.17 67.51 69.76 67.62C68.71 67.93 67.78 67.75 67.17 66.62C66.84 66.01 66.11 65.73 65.49 65.43C64.2 64.81 64.07 64.68 64.48 63.37C64.64 62.88 64.47 62.83 64.08 62.76C62.88 62.53 62.89 62.52 63.19 61.32C63.21 61.21 63.27 61.1 63.25 61.01C63.14 60.19 63.44 59.64 64.26 59.44C64.54 59.37 64.6 59.18 64.52 58.95C64.45 58.77 64.21 58.76 64.1 58.83C63.71 59.11 63.37 59.16 62.89 58.96C62.4 58.76 62.29 59.45 61.93 59.63C61.72 59.73 61.62 60.18 61.3 59.94C60.57 59.39 60.08 59.68 59.6 60.3C59.36 60.61 58.97 60.66 58.62 60.8C57.25 61.34 55.79 61.7 54.61 62.64C54.4 62.81 54.25 62.35 54.1 62.61C54 62.79 54.03 63.2 53.96 63.21C53.2 63.34 52.74 64.16 51.94 64.09C51.28 64.04 50.8 64.39 50.3 64.7C50.12 64.81 49.95 64.96 49.76 65.07C49.41 65.29 49.03 64.65 48.79 65C48.6 65.27 48.47 65.62 48.18 65.72C47.78 65.85 47.45 66.24 46.96 66.09C46.5 65.95 46.11 66.21 45.74 66.43C44.76 67.01 44.28 67.33 43.65 67.06C42.88 66.74 42.36 67.25 41.75 67.37C41.42 67.44 41.12 67.68 40.81 67.43C40.08 66.84 39.13 67.26 38.36 66.79C37.82 66.46 37.11 66.06 36.6 66.18C35.93 66.35 35.82 66.04 35.59 65.67C35.41 65.4 35.24 65.13 35.06 64.86C34.69 65.13 34.65 64.74 34.43 64.62C33.34 63.97 32.96 62.7 31.98 61.96C31.68 61.73 31.62 61.2 31.11 61.09C30.76 61.02 30.64 60.24 30.07 60.73C30.05 60.75 29.88 60.63 29.82 60.55C28.8 59.29 27.28 58.79 25.95 57.98C25.36 57.62 24.78 57.23 24.19 56.85C24 56.72 23.89 56.33 23.56 56.68C23.41 56.85 23.19 57.1 23.33 57.24C23.84 57.79 23.53 58.11 23.13 58.47C23.03 58.57 22.95 58.83 23.01 58.91C23.69 59.88 22.31 60.78 22.93 61.73C22.57 62.16 22.11 62.52 22.24 63.22C22.28 63.4 21.91 63.46 21.7 63.43C21.26 63.37 20.94 63.56 20.71 63.88C19.91 64.97 18.7 65.65 17.98 66.82C17.63 67.39 16.75 67.38 16.41 68.06C16.38 68.13 16.07 68.15 15.95 68.08C15.02 67.56 14.02 67.49 13 67.34C12.51 67.26 11.88 67.12 11.37 66.69C11.09 66.45 10.45 66.54 10.02 66.24C9.61 65.95 9.47 66.17 9.41 66.59C9.14 68.29 8.8 69.98 8.72 71.72C8.69 72.44 8.26 73.14 8.73 73.87C8.84 74.05 8.65 74.27 8.57 74.48C8.29 75.11 8.07 75.76 8.58 76.39C8.61 76.43 8.65 76.48 8.67 76.53C8.92 77.03 8.14 77.38 8.48 77.9C8.7 78.24 8.96 78.6 8.92 79.03C8.8 80.22 9.4 81.26 9.57 82.38C9.6 82.54 9.75 82.69 9.72 82.83C9.54 83.97 10.18 84.77 10.79 85.6C11.02 85.91 11.2 86.24 11.38 86.57C11.83 87.38 11.83 87.41 12.91 87.39C13.24 87.39 13.5 87.5 13.58 87.74C13.79 88.39 14.04 88.29 14.39 87.88C14.54 87.7 14.84 87.59 14.98 87.71C15.62 88.28 16.43 87.4 17.04 88.01C17.64 87.44 18.51 87.89 19.19 87.43C19.57 87.18 20.1 88.01 20.68 87.51C21.17 87.09 21.67 88.05 22.18 87.61C22.72 87.14 23.16 87.55 23.67 87.66C24.27 87.79 24.66 88.09 25.08 88.54C25.61 89.11 26.31 89.48 26.51 90.36C26.55 90.58 27.02 90.7 27.28 90.89C27.5 91.06 27.69 91.26 27.5 91.58C27.38 91.76 27.22 91.92 27.6 92.01C28.09 92.13 28.34 92.47 28.26 92.99C28.19 93.45 28.45 93.72 28.75 93.97C29.64 94.72 30.39 95.62 31.35 96.3C31.75 96.59 32.12 96.67 32.56 96.64C32.59 96.72 32.61 96.83 32.67 96.88C32.76 96.93 32.83 96.86 32.78 96.77C32.73 96.71 32.62 96.7 32.54 96.66C32.56 96.48 32.68 96.33 32.84 96.33C33.44 96.37 33.63 96.1 33.53 95.53C33.4 94.73 33.3 93.94 33.16 93.14C33.13 92.94 32.95 92.76 32.9 92.56C32.76 91.95 32.18 90.14 31.85 89.89C31.36 89.52 31.54 88.82 30.97 88.46C30.48 88.14 30.15 87.54 29.76 87.06C29.47 86.68 29.28 86.68 29.17 87.18C29.16 87.24 28.95 87.33 28.91 87.3C28.45 86.94 27.86 87.11 27.37 86.9C27.06 86.77 26.85 86.48 26.94 86.1C27.02 85.74 27.09 85.35 27.65 85.56C27.99 85.68 28.18 85.29 28.49 85.24C28.62 85.23 28.75 84.97 28.89 85.2C29.19 85.69 29.62 85.34 29.96 85.42C30.91 85.61 31.56 86.26 31.98 87.2C32.24 87.79 32.32 88.49 33.1 88.87C33.49 89.07 33.64 89.88 33.78 90.44C33.93 91.04 34.23 90.81 34.53 90.67C34.72 90.58 34.9 90.45 35.06 90.32C35.23 90.19 35.35 89.98 35.58 90.21C36.04 90.66 36.76 90.5 37.23 91.06C37.61 91.5 38.47 91.48 38.75 92.1C39.04 92.71 39.68 92.31 40.04 92.7C40.4 93.09 40.88 93.41 41.36 93.64C41.73 93.81 42.11 93.97 42.13 94.38C42.17 95.31 43.34 95.26 43.48 96.08C43.52 96.31 43.7 96.2 43.82 96.11C44.12 95.88 44.47 96.06 44.77 95.98C45.08 95.89 45.41 95.77 45.62 95.55C45.71 95.45 45.48 95.09 45.46 94.84C45.43 94.29 45.39 93.73 45.44 93.18C45.49 92.65 45.31 92.37 44.85 92.19C44.71 92.13 44.51 91.86 44.52 91.84C45.23 90.95 44.17 90.76 43.89 90.27C43.71 89.95 44 89.76 44.01 89.53C44.02 89.26 43.6 89.34 43.46 89.05C43.06 88.16 41.88 88.53 41.32 87.79C41.23 87.68 40.6 87.89 40.32 88.08C39.91 88.37 39.5 88.35 39.07 88.35C38.85 88.35 38.6 88.34 38.53 88.1C38.45 87.84 38.4 87.51 38.67 87.34C39.53 86.81 40.42 86.07 41.48 86.41C42.04 86.59 42.63 86.93 43.18 87.24C44.62 88.07 44.64 88.07 45.39 89.55C45.6 89.97 45.87 90.28 46.18 90.58C46.52 90.91 46.36 91.31 46.43 91.67C46.36 91.7 46.24 91.72 46.2 91.78C46.14 91.87 46.22 91.95 46.31 91.89C46.47 91.85 46.48 91.74 46.51 91.65L46.51 91.66ZM78.9 92.98C78.98 92.94 79.1 92.93 79.14 92.87C79.2 92.79 79.13 92.7 79.03 92.75C78.97 92.79 78.96 92.91 78.92 93C78.83 93.03 78.72 93.04 78.67 93.11C78.61 93.2 78.69 93.28 78.79 93.22C78.85 93.18 78.87 93.06 78.9 92.98L78.9 92.98ZM88.5 58.46C87.93 58.04 87.36 57.63 86.58 57.77C86.31 57.82 85.99 57.85 85.82 57.59C85.23 56.68 84.22 56.99 83.44 56.86C81.89 56.61 81.86 56.75 81.07 56.13C80.83 55.94 80.67 55.85 80.39 56.05C80.23 56.15 79.96 56.07 79.75 56.11C79.24 56.24 78.8 55.74 78.28 55.98C77.94 55.44 77.22 56.46 76.92 55.65C76.85 55.45 76.67 55.57 76.54 55.67C76.2 55.94 75.77 55.84 75.43 55.76C74.62 55.58 73.92 55.76 73.17 56.02C72.12 56.39 71.04 56.66 69.99 57.07C68.96 57.47 68.16 57.99 67.41 58.8C66.69 59.58 65.55 59.91 64.86 60.79C64.82 60.83 64.78 60.87 64.76 60.92C64.67 61.16 64.74 61.35 64.99 61.43C66 61.73 66.86 61.26 67.35 60.54C68.39 59.02 70.16 59.21 71.52 58.46C71.64 58.39 71.85 58.47 72.01 58.46C72.39 58.44 72.66 58.52 72.64 58.99C72.63 59.37 72.72 59.83 72.1 59.76C71.48 59.69 71.01 60.29 70.38 60.12C69.89 59.99 69.81 61.07 69.17 60.54C69.15 60.52 69 60.64 68.92 60.69C68.72 60.83 68.7 61.06 68.6 61.25C68.48 61.48 68.31 61.71 68 61.77C67.37 61.9 67.18 62.6 66.6 62.86C66.18 63.05 65.91 63.87 66.11 64.24C66.43 64.83 66.97 64.22 67.38 64.08C67.63 64 67.84 63.78 68.03 63.59C68.68 62.93 69.29 62.26 70.13 61.8C70.91 61.38 71.87 61.36 72.48 60.54C72.72 60.24 73.59 60.66 73.77 59.88C73.78 59.84 74 59.79 74.07 59.83C74.43 60.03 74.66 60.3 74.6 60.76C74.56 61.08 74.63 61.41 74.14 61.47C73.48 61.56 72.9 61.86 72.5 62.43C72.05 63.05 71.19 62.52 70.73 63.1C70.67 63.17 70.51 63.15 70.44 63.22C69.79 63.77 69.43 64.64 68.49 64.9C68.28 64.96 68.13 65.54 68.09 65.9C68.06 66.21 68.51 66.1 68.68 66.31C69.1 66.81 69.36 66.8 69.35 66.06C69.35 65.92 69.5 65.81 69.69 65.79C70.51 65.73 71 65.09 71.64 64.7C72.05 64.44 72.18 63.91 72.67 63.8C73.29 63.65 73.99 63.62 73.97 62.69C73.97 62.55 74.09 62.52 74.18 62.58C74.87 63.1 75.23 62.32 75.76 62.18C76.17 62.07 76.51 61.78 76.98 61.77C77.54 61.76 77.56 62.17 77.72 62.47C77.97 62.96 77.42 62.71 77.28 62.88C77.13 63.08 76.83 63.24 76.59 63.26C75.75 63.33 75.12 63.91 74.44 64.27C73.75 64.64 73.28 65.41 72.37 65.59C71.92 65.68 71.79 66.48 72.04 67.03C72.35 67.71 72.76 67.04 73.12 67.1C73.43 67.15 73.59 66.89 73.81 66.74C74.43 66.31 75.15 65.98 75.68 65.46C76.26 64.89 77.04 64.83 77.65 64.46C78.93 63.7 80.34 63.48 81.72 63.16C82.28 63.03 82.93 62.68 83.43 62.85C84.44 63.22 85.53 63.04 86.53 63.58C87.73 64.22 88.45 63.65 88.48 62.26C88.48 61.99 88.58 61.6 88.44 61.45C87.94 60.92 88.64 60.3 88.39 59.99C87.88 59.37 88.67 58.97 88.47 58.46C88.55 58.43 88.67 58.41 88.71 58.35C88.77 58.26 88.69 58.18 88.6 58.24C88.55 58.26 88.54 58.38 88.5 58.46ZM80.84 96.62C80.42 96.56 79.97 96.83 79.58 96.5C79.49 96.43 79.41 96.35 79.36 96.26C79.19 95.99 79.47 96.05 79.57 95.98C80.7 95.19 82.17 95.37 83.33 94.65C85.04 94.76 86.16 93.51 87.51 92.81C87.7 92.71 87.85 92.52 87.79 92.26C87.73 91.98 87.5 91.98 87.28 91.98C86.36 91.97 85.49 92.25 84.66 92.63C83.84 93 82.88 92.98 82.18 93.62C81.55 93.03 81.32 94.04 80.81 93.97C80.18 93.89 79.65 94.2 79.16 94.54C78.16 95.22 76.85 94.48 75.88 95.28C75.86 95.3 75.78 95.27 75.74 95.25C75.18 94.85 74.67 94.96 74.07 95.24C73.48 95.51 72.77 95.2 72.65 94.78C72.56 94.44 73.11 93.76 73.68 93.67C74.96 93.47 76.15 93.07 77.22 92.33C78.06 92.47 78.16 91.74 78.45 91.26C78.71 90.82 78.48 90.67 78.05 90.68C77.78 90.68 77.45 90.57 77.24 90.69C76.4 91.17 75.27 90.91 74.61 91.8C74.47 92 74.2 92.08 74.03 91.98C73.29 91.56 72.92 91.92 72.5 92.5C72.31 92.76 71.9 92.93 71.39 92.72C70.79 92.49 70.98 93.56 70.42 93.61C70.27 93.62 70.1 93.56 69.97 93.48C69.7 93.31 69.46 93.25 69.34 93.62C69.26 93.88 69.09 94 68.86 93.97C68.61 93.93 68.31 93.68 68.14 93.76C67.9 93.88 67.94 94.41 67.46 94.31C67.06 94.23 66.8 94.88 66.42 94.62C65.87 94.23 65.43 94.73 64.93 94.66C64.39 94.59 63.88 94.8 63.36 94.92C62.61 95.09 61.87 95.15 61.11 95.45C60.2 95.82 60.08 95.63 60.09 96.35C60.1 96.89 59.97 97.42 60.19 97.98C60.36 98.41 59.99 98.88 60.27 99.44C60.52 99.97 60.24 100.74 60.39 101.4C59.72 101.91 59.82 102.44 60.29 103.02C60.49 103.25 60.46 103.55 60.34 103.8C59.66 105.17 60.26 106.42 60.63 107.7C60.78 108.24 61.1 108.32 61.59 108.29C62.13 108.26 62.3 107.57 62.85 107.61C63.38 107.65 63.82 108.1 64.4 107.94C64.61 107.88 64.87 107.99 65.06 107.91C66.31 107.38 67.73 107.72 68.96 107.13C69.05 107.08 69.18 107.02 69.23 107.05C70.11 107.66 70.75 107 71.47 106.67C71.82 106.51 72.2 106.22 72.62 106.6C72.92 106.86 73.28 106.87 73.61 106.61C74.02 106.29 74.5 106.25 75 106.29C75.83 106.35 76.57 106.15 77.33 105.76C77.77 105.54 78.3 105.33 78.96 105.4C79.53 105.47 80.3 105.29 80.9 105.05C81.61 104.77 82.23 104.29 83.06 104.6C83.17 104.65 83.39 104.57 83.5 104.47C83.75 104.25 83.98 104.02 84.19 103.76C84.54 103.33 84.84 104.06 85.18 103.79C85.42 103.6 85.64 103.15 85.97 103.36C86.48 103.67 86.9 103.35 87.06 103.1C87.35 102.62 87.77 102.41 88.21 102.33C88.78 102.22 88.98 101.87 89.24 101.43C89.86 100.43 89.09 101.02 88.78 100.89C88.24 100.69 87.83 100.57 87.26 100.89C86.77 101.17 85.9 100.63 85.65 101.58C85.65 101.6 85.41 101.61 85.35 101.56C84.89 101.11 84.61 101.46 84.23 101.71C83.67 102.08 83.14 102.58 82.34 102.03C81.94 101.77 81.67 101.53 82 101.43C82.55 101.25 82.66 100.39 83.43 100.62C83.74 100.72 84.06 100.58 84.34 100.37C85.4 99.57 86.83 99.81 87.93 99.08C88.65 99.6 88.95 98.94 89.37 98.58C89.61 98.36 89.87 98.17 90.12 97.97C90.2 97.9 90.55 97.79 90.29 97.76C89.74 97.7 89.29 97.08 88.77 97.36C88.05 97.74 87.17 97.59 86.5 98.11C85.98 98.52 85.35 98.6 84.69 98.7C84.21 98.77 83.63 98.63 83.17 99.12C82.52 99.81 82.43 99.75 81.78 99.03C81.47 98.68 81.5 98.39 81.91 98.34C82.37 98.29 82.7 98 83.11 97.87C83.46 97.77 83.85 97.36 84.08 97.45C84.83 97.75 84.48 96.81 84.91 96.8C85.06 96.79 85.22 96.66 85.36 96.67C85.99 96.75 86.46 96.27 87.1 96.3C88.08 96.34 88.5 95.3 89.3 94.95C89.45 94.88 89.45 94.73 89.31 94.73C88.69 94.75 88.22 94.04 87.48 94.5C86.02 95.41 84.25 95.53 82.72 96.31C82.15 96.6 81.51 96.78 80.84 96.62ZM97.07 68.46C97.07 68.15 97.07 67.94 96.78 67.73C96.31 67.4 95.85 66.87 95.83 66.35C95.8 65.58 95.27 65.04 95.18 64.41C95.09 63.76 94.32 63.71 94.34 62.97C94.36 62.47 93.97 61.69 93.07 61.76C92.92 61.77 92.63 61.52 92.6 61.36C92.35 60.1 91.09 59.94 90.36 59.21C90.19 59.04 89.9 59.11 89.86 59.36C89.81 59.75 89.39 59.98 89.65 60.55C90.02 61.39 90.1 62.41 89.78 63.3C89.55 63.93 89.87 64.42 89.82 64.98C89.81 65.21 89.95 65.31 90.19 65.42C91.06 65.82 92.15 65.93 92.58 67.01C93.22 67.01 93.51 67.34 93.54 67.97C93.55 68.09 93.74 68.27 93.88 68.31C94.65 68.53 94.9 69.34 95.54 69.73C96.05 70.03 96.43 70.64 96.38 71.24C96.33 71.87 96.84 72.01 97.05 72.39C97.17 72.61 97.27 72.78 97.5 72.72C97.76 72.65 97.73 72.4 97.73 72.19C97.76 71.32 97.71 70.37 97.3 69.68C97.02 69.2 96.6 68.96 97.07 68.46ZM78.18 93.47C78.15 93.44 78.12 93.4 78.08 93.37C78.05 93.4 78.01 93.43 77.98 93.47C78.03 93.5 78.08 93.54 78.12 93.57C78.14 93.54 78.16 93.5 78.18 93.47L78.18 93.47Z" fill="#284854" fill-opacity="1.000000" fill-rule="nonzero"/>
		<path id="Vector" d="M35.02 59.77C34.5 59.71 34.11 59.13 34.33 58.69C34.54 58.26 34.92 57.93 35.17 57.49C35.47 56.96 36.33 57.04 36.52 56.15C36.65 55.54 37.48 55.18 38.07 54.79C38.42 54.56 38.66 54.2 39.11 54.03C39.32 53.96 39.87 53.93 39.76 53.54C39.62 52.98 39.97 52.91 40.31 52.78C40.75 52.63 40.5 52.2 40.65 51.94C40.84 51.61 41.12 51.3 41.19 50.95C41.4 49.97 41.62 48.97 41.18 47.99C40.96 47.53 40.8 47.11 40.73 46.58C40.64 45.95 40.16 45.39 39.64 44.88C38.93 44.2 38.6 43.12 37.52 42.81C37.09 41.64 35.78 41.13 35.43 39.84C35.09 38.61 34.09 37.63 33.87 36.31C33.01 35.94 33.69 34.65 32.7 34.36C32.75 33.65 32.39 32.97 32.57 32.22C32.66 31.86 32.45 31.35 32.22 31.02C31.52 30.03 31.85 28.94 31.82 27.89C32.33 27.66 31.26 26.92 32.16 26.81C31.94 26.4 32.34 26.07 32.32 25.67C32.3 25.18 32.34 24.67 32.3 24.18C32.27 23.7 32.55 23.16 32.78 23.03C34.04 22.26 34.49 20.67 35.91 20.06C36.29 19.9 36.56 19.48 37.05 19.59C37.28 19.63 37.5 19.58 37.64 19.39C38.48 18.26 39.87 18.43 40.96 17.9C42.39 17.2 44.17 17.2 45.24 15.79C46.06 15.72 46.7 15.21 47.39 14.85C48.36 14.33 48.47 14.1 49.21 12.83C49.65 12.09 50.24 11.46 50.2 10.5C50.2 10.3 50.52 10.08 50.71 9.88C50.78 9.79 50.88 9.73 50.98 9.69C51.09 9.67 51.64 10.86 51.6 10.99C51.2 12.07 51.22 12.06 51.82 12.79C52.13 13.16 52.81 13.46 52.19 14.12C52.72 15.01 53.28 15.87 54.31 16.27C54.45 16.32 54.7 16.31 54.75 16.4C55.56 17.81 57.37 17.89 58.33 19.16C58.61 19.52 59.16 19.57 58.79 20.19C58.7 20.34 58.86 20.48 59.03 20.55C59.9 20.94 60.06 21.7 60.08 22.56C60.09 23.12 60 23.61 60.62 24.11C61.11 24.5 61.35 25.47 61.33 26.17C61.29 27.24 62.25 28.25 61.49 29.33C61.94 30.02 61.66 30.81 61.76 31.55C61.82 32.07 61.2 32.43 61.43 32.94C61.88 33.93 61.49 34.78 61.14 35.68C61.01 36.01 60.94 36.54 61.1 36.8C61.49 37.41 61.29 38.04 61.02 38.43C60.4 39.29 61.1 40.19 60.77 41.04C60.62 41.42 60.83 41.9 60.5 42.29C60.38 42.43 60.31 42.77 60.4 42.91C60.99 43.84 60.49 44.97 60.97 45.91C61.16 46.28 61.04 46.67 61.06 47.05C61.11 47.79 61.34 48.16 61.96 48.59C62.28 48.81 62.57 49.1 62.2 49.53C62.02 49.74 62.06 49.93 62.26 50.09C63.35 50.97 63.81 51.52 64.37 52.74C64.48 52.97 64.56 53.11 64.81 53.12C65.11 53.13 65.39 53.22 65.35 53.57C65.29 54.13 65.57 54.49 65.91 54.86C66.15 55.13 65.96 55.36 65.76 55.57C65.55 55.8 65.42 55.63 65.22 55.54C64.97 55.43 64.7 55.37 64.53 55.13C64 54.39 63.34 53.8 62.53 53.38C62.23 53.24 62.11 52.94 62.03 52.58C61.91 52.05 61.48 51.91 60.89 52.08C60.19 52.28 59.27 52.9 58.73 53.56C58.52 53.81 58.36 54.09 57.98 54.11C57.68 54.13 57.42 53.82 57.25 53.88C57.06 53.95 56.99 54.33 56.84 54.54C56.54 54.94 56.1 54.27 56.02 54.49C55.73 55.32 54.93 54.99 54.42 55.3C53.22 56.03 51.84 55.99 50.53 56.06C50.16 56.08 49.76 56.02 49.37 56.09C48.84 56.19 48.27 55.94 47.78 56.32C47.18 56.79 47.04 55.69 46.57 55.95C46.23 56.13 46.1 55.82 45.85 55.79C45.34 55.73 44.87 56.43 44.48 56.05C44.12 55.69 43.85 55.43 43.31 55.43C42.75 55.43 42.54 54.85 42.17 54.54C41.47 53.95 41.14 53.94 40.55 54.66C40.35 54.9 40.21 55.2 40.07 55.49C39.86 55.91 39.42 55.38 39.29 55.64C38.66 56.86 37.46 57.41 36.46 58.19C36.29 58.33 36.63 58.74 36.28 58.96C36.03 59.12 35.62 59.08 35.58 59.55C35.54 59.79 35.23 59.78 35.01 59.77L35.02 59.77ZM46.52 16.94C46.48 16.86 46.47 16.74 46.4 16.71C46.31 16.65 46.23 16.74 46.29 16.82C46.33 16.88 46.45 16.9 46.53 16.93C46.1 17.28 46.04 18.34 45.08 17.68C45.02 17.65 44.82 17.87 44.69 17.88C44.25 17.92 43.99 18.26 43.81 18.56C43.45 19.15 42.92 18.37 42.71 18.71C42.46 19.11 41.94 19.56 41.8 19.47C41.18 19.12 41.07 19.57 40.67 19.82C40.23 20.12 39.58 20.18 39.08 20.53C38.62 20.85 37.98 20.79 37.58 21.27C37.18 21.74 36.56 21.75 36.02 21.93C35.86 21.98 35.64 22.06 35.66 22.18C35.83 22.92 35.11 22.89 34.81 23.22C34.13 23.96 33.39 24.66 33.63 25.83C33.73 26.34 33.66 26.83 33.21 27.17C32.97 27.36 33.17 27.52 33.21 27.72C33.27 28.01 33.68 28.23 33.45 28.57C33.15 29.02 33.5 29.38 33.55 29.77C33.61 30.33 34.24 30.86 33.92 31.3C33.39 32.03 33.84 32.52 34.04 33.11C34.38 34.1 35.17 34.96 34.97 36.12C34.94 36.3 35.05 36.49 35.2 36.5C35.89 36.54 35.37 37.4 35.98 37.59C36.43 37.72 36.48 38.36 36.7 38.77C36.92 39.2 37.14 39.63 37.37 40.07C38.06 39.81 38.02 40.48 38.23 40.79C38.49 41.17 38.45 41.19 39.02 41.64C39.4 41.93 39.48 42.42 39.74 42.79C39.85 42.96 40.08 43.05 40.24 43.19C41.23 44.06 42.4 44.83 42.22 46.42C42.21 46.52 42.24 46.66 42.3 46.72C43.52 47.76 42.46 49.14 42.84 50.31C42.31 50.8 42.7 51.58 42.26 52.14C42.1 52.36 42.17 52.81 42.68 52.8C43.06 52.8 43.6 52.77 43.68 53.18C43.85 53.94 44.5 53.85 44.93 53.99C46 54.35 47.25 54.88 48.22 54.38C49.22 53.88 50.05 54.13 50.96 54.16C51.29 54.18 51.6 54.19 51.91 54.36C52.24 54.56 52.49 54.47 52.85 54.11C53.28 53.66 54.01 53.25 54.6 53.26C55.51 53.28 56.19 52.96 56.87 52.5C57.15 52.31 57.35 52.02 57.72 52.29C57.86 52.39 57.98 52.44 58.06 52.23C58.4 51.38 59.13 51.07 59.91 50.77C60.09 50.7 60.2 50.47 60.35 50.31C59.79 49.94 60.33 49.22 59.87 48.81C59.53 48.5 59.21 48.18 59.66 47.71C59.38 47.37 59.1 47.05 58.84 46.71C58.78 46.64 58.76 46.56 58.76 46.48C58.76 46.4 58.79 46.32 58.85 46.26C59.41 45.6 59.26 44.89 58.92 44.23C58.58 43.58 58.88 42.92 58.74 42.28C58.68 41.98 59.04 41.9 58.97 41.56C58.85 41.04 59.12 39.57 59.3 39.13C59.5 38.62 59.91 38.14 59.43 37.52C59.27 37.33 59.43 37 59.64 36.79C59.83 36.6 60.07 36.42 60.04 36.1C59.91 34.67 60.28 33.29 60.38 31.87C60.44 31.05 59.81 30.24 60.37 29.41C60.43 29.32 60.3 29.11 60.24 28.96C60.11 28.64 59.83 27.08 59.94 26.56C59.99 26.33 59.89 26.26 59.8 26.17C59.29 25.69 59.09 24.98 59.14 24.41C59.21 23.6 58.44 23.27 58.41 22.6C58.35 21.14 57.28 20.32 56.39 19.39C55.17 19.43 54.67 18.27 53.8 17.74C53.09 17.29 52.33 16.8 51.74 16.21C51.17 15.64 51.35 14.59 50.9 13.85C50.75 13.6 50.64 13.76 50.37 13.8C49.42 13.91 49.87 14.91 49.31 15.29C48.41 15.88 47.62 16.68 46.52 16.95L46.52 16.94Z" fill="#284854" fill-opacity="1.000000" fill-rule="nonzero"/>
		<path id="Vector" d="M56.45 4.96C55.41 5.05 54.51 4.89 54.03 3.79C53.96 3.61 53.74 3.36 53.57 3.35C52.69 3.27 51.95 2.77 51.2 2.44C50.63 2.18 50.23 2.73 49.72 2.42C49.33 2.19 48.89 1.94 48.36 1.97C47.4 2.02 46.45 2.21 45.54 2.53C44.6 2.87 43.5 2.76 42.73 3.57C42.55 3.76 42.2 3.73 41.97 3.53C41.74 3.34 41.53 3.42 41.47 3.62C41.26 4.23 40.74 4.4 40.24 4.47C39.26 4.61 38.74 5.47 37.96 5.89C37.83 5.97 37.83 6.33 37.54 6.28C36.88 6.16 36.72 6.79 36.32 7.05C35.72 7.44 35.15 7.86 34.66 8.34C34.14 8.84 33.23 9.07 33.24 10.1C33.25 10.37 32.79 10.69 32.49 10.93C32.04 11.3 31.4 11.51 31.63 12.3C31.01 12.75 30.83 13.54 30.34 14.06C29.91 14.53 29.74 15 29.62 15.63C29.47 16.52 29.46 17.46 29.05 18.32C28.84 18.75 28.82 19.26 29.05 19.78C29.32 20.42 28.98 21.1 28.94 21.76C28.88 22.73 28.93 23.72 28.7 24.68C28.67 24.78 28.66 24.98 28.71 25C29.61 25.44 28.83 26.24 29.1 26.86C29.33 27.37 29.27 28.03 29.51 28.58C29.67 28.92 29.27 29.11 29.31 29.45C29.38 30.06 29.37 30.67 29.35 31.28C29.34 31.67 29.4 32.13 29.5 32.43C29.79 33.36 29.66 34.27 29.65 35.19C29.65 35.69 30.02 36.19 29.91 36.58C29.82 36.95 29.75 37.39 29.76 37.7C29.78 39.51 28.77 41.16 28.99 43C29.02 43.32 28.82 43.76 28.6 44.03C27.6 45.25 27.26 46.7 27.05 48.2C26.98 48.69 26.52 49.05 26.68 49.59C25.83 50.3 26.06 51.27 26.04 52.18C26.03 52.56 26.04 52.96 25.96 53.33C25.86 53.83 24.88 54.45 24.43 54.36C24.02 54.28 23.35 53.35 23.52 52.89C23.88 51.94 23.56 50.84 24.29 49.95C24.63 49.53 24.47 48.82 24.54 48.26C24.69 46.95 24.55 46.92 25.35 45.97C25.93 45.27 26.04 44.4 26.31 43.61C26.57 42.82 26.36 41.88 27.26 41.36C27.37 41.3 27.39 41.07 27.25 40.93C26.95 40.63 26.97 40.35 27.27 40.09C27.52 39.86 27.75 39.62 27.66 39.24C27.25 37.31 27.85 35.39 27.72 33.44C27.65 32.36 27.48 31.3 27.36 30.22L27.34 30.24C27.46 30.2 27.62 30.19 27.58 30.02C27.56 29.96 27.43 29.93 27.35 29.89L27.36 29.9C27.28 29.09 27.43 28.28 27.08 27.48C26.9 27.06 26.98 26.5 27.04 26.01C27.21 24.59 27.22 23.56 26.86 22.6C26.71 22.2 26.68 21.9 26.88 21.53C27.09 21.14 27.28 20.78 27.08 20.23C26.82 19.52 27.59 18.7 27.03 17.94C27.26 17.21 27.1 16.43 27.37 15.71C27.66 14.97 27.99 14.24 28.26 13.49C28.37 13.18 28.55 12.91 28.79 12.69C29.23 12.27 29.57 11.77 29.65 11.16C29.7 10.71 29.93 10.49 30.3 10.3C30.98 9.93 31.36 9.38 31.73 8.64C32.24 7.66 32.8 6.48 34.16 6.3C34.31 6.28 34.57 6.17 34.57 6.12C34.48 5.12 35.23 5.04 35.9 4.81C36.14 4.73 36.32 4.46 36.49 4.25C37.45 3.05 38.12 2.76 39.65 2.17C40.56 1.82 41.62 1.59 42.35 0.95C43.82 -0.33 45.52 0.08 47.16 0C48.13 0.7 49.17 0.24 50.17 0.13C50.55 0.09 50.87 -0.01 51.22 0.23C51.92 0.71 52.7 1.05 53.53 1.23C54.48 1.44 55.18 2.09 55.87 2.71C56.55 3.32 56.48 4.18 56.42 5L56.45 4.97L56.45 4.96Z" fill="#284854" fill-opacity="1.000000" fill-rule="nonzero"/>
		<path id="Vector" d="M56.42 5C56.8 4.97 56.72 4.59 56.88 4.4C57.14 4.06 57.45 3.91 57.88 3.98C58.47 4.09 59.06 4.67 59.69 4.04C59.74 4 60.02 4.1 60.11 4.2C60.43 4.58 60.8 4.71 61.28 4.66C61.44 4.64 61.61 4.69 61.75 4.78C61.89 4.88 61.99 5.03 62.03 5.19C62.21 6 62.88 6.19 63.47 6.3C64.18 6.43 64.59 6.78 64.94 7.37C65.55 8.41 66.67 9.08 67.03 10.31C67.13 10.66 67.43 10.94 67.37 11.36C67.27 12 68.27 12.12 68.09 12.82C68.75 13.23 68.57 14.14 69.13 14.62C69.23 14.7 69.33 14.95 69.29 15.04C68.97 15.73 69.4 16.24 69.63 16.8C69.98 17.65 70.26 18.49 70.37 19.42C70.42 19.91 70.34 20.48 70.78 20.97C71.23 21.48 71.14 22.31 70.93 22.87C70.67 23.53 70.82 24.17 70.69 24.8C70.57 25.42 70.66 26.08 70.35 26.7C70.25 26.91 70.23 27.25 70.44 27.48C71.2 28.3 70.69 29.21 70.57 30.05C70.51 30.42 70.31 30.69 70.58 31.07C70.73 31.28 70.69 31.6 70.51 31.84C70.28 32.13 70.25 32.45 70.4 32.77C70.74 33.45 70.8 34.08 70.38 34.78C70.24 35.01 70.34 35.43 70.42 35.74C70.58 36.47 70.99 37.21 70.92 37.91C70.85 38.6 71.03 39.23 71 39.9C70.97 40.6 71.14 41.28 71.25 41.96C71.37 42.77 72.11 43.44 71.74 44.37C71.66 44.56 71.94 45.03 72.17 45.2C73.05 45.81 73.14 46.87 73.55 47.72C73.93 48.53 74.19 49.41 74.75 50.14C74.84 50.25 75.14 52.34 75.15 52.52C75.16 53.05 74.73 53.23 74.41 53.45C74.13 53.63 73.79 52.93 73.45 53.43L73.31 52.99L73.06 51.06C72.83 50.58 72.7 50.03 72.29 49.65C72.04 49.42 72.02 49.23 72.25 48.98C72.31 48.92 72.31 48.72 72.25 48.68C72 48.48 71.7 48.34 71.47 48.12C71.26 47.92 71.73 47.62 71.37 47.32C70.69 46.76 70.34 45.85 69.99 44.99C69.58 44 69.28 42.98 68.92 41.98C68.8 41.67 68.7 41.38 68.7 41.05C68.7 40.4 68.62 39.78 68.41 39.14C68.22 38.53 68.09 37.81 68.35 37.15C68.6 36.53 68.45 35.95 68.27 35.36C68.21 35.16 67.98 34.91 68.04 34.77C68.47 33.78 67.95 32.69 68.36 31.73C68.63 31.1 68.64 30.48 68.7 29.83C68.78 28.98 68.97 28.14 69.14 27.3C69.17 27.16 69.15 27 69.18 26.91C69.4 26.07 68.56 25.35 69.01 24.45C69.4 23.68 69.06 22.8 68.86 22.01C68.73 21.53 69.26 21.17 68.92 20.67C68.66 20.29 68.53 19.8 68.38 19.35C68.26 19.01 68.82 18.81 68.61 18.46C68.46 18.2 68.04 18.24 67.96 17.8C67.92 17.55 67.87 17.38 67.93 17.1C68.03 16.7 68.3 16.09 67.55 15.9C67.7 15.3 67.5 14.87 67.07 14.41C66.71 14.02 66.34 13.6 66.21 13C66.12 12.62 65.81 12.25 65.55 11.9C65.15 11.32 64.78 10.67 64.71 9.92C64.7 9.76 64.7 9.58 64.63 9.44C64.41 8.97 63.88 9.08 63.53 8.86C63.13 8.62 63.59 7.72 63.19 7.75C62.42 7.8 62.33 6.94 61.57 6.89C60.8 6.84 60.1 6.13 59.25 5.88C58.64 5.69 58.12 5.63 57.53 5.77C56.75 5.95 56.75 5.95 56.46 4.97L56.42 5L56.42 5ZM30.33 73.49C30.31 73.92 30.45 74.44 29.74 74.41C29.56 74.41 29.41 74.49 29.37 74.65C29.25 75.12 28.84 75.33 28.54 75.65C27.92 75.21 27.17 75.57 26.51 75.33C26.32 75.27 26.18 75.05 26.02 74.89C25.92 74.79 25.82 74.76 25.78 74.86C25.73 74.95 25.72 75.06 25.72 75.17C25.82 76.49 25.79 76.57 24.92 77.43C24.78 77.58 24.72 77.8 24.59 77.97C24.42 78.18 24.23 78.39 24.01 78.56C23.72 78.8 22.89 78.78 22.82 78.53C22.71 78.14 22.51 77.6 23.05 77.41C23.44 77.28 23.41 76.92 23.65 76.71C24.17 76.22 24.77 75.71 24.71 74.86C24.68 74.42 24.79 73.9 24.59 73.58C24.35 73.19 23.78 73.41 23.36 73.41C22.82 73.41 22.79 73.12 22.7 72.69C22.53 71.83 23.21 71.39 23.58 70.86C23.78 70.58 24.36 70.66 24.77 70.97C25.27 71.34 25.44 71.95 25.83 72.41C26.11 72.75 25.68 73.07 25.54 73.37C25.37 73.72 25.63 73.78 25.79 73.71C26.36 73.44 26.9 73.76 27.45 73.74C27.99 73.72 28.57 73.85 28.96 73.3C29.14 73.05 29.45 73.12 29.7 73.05C30.34 72.86 30.34 72.84 30.33 73.49L30.33 73.49ZM28.34 68.18C28.04 68.56 27.79 69.09 27.38 69.36C27.06 69.58 26.55 69.46 26.2 69.09C25.82 68.72 25.57 67.96 25.75 67.62C26.02 67.15 27.17 66.9 27.66 67.26C27.95 67.47 28.29 67.69 28.34 68.18L28.34 68.18ZM19.74 74.36C19.45 74.34 18.53 73.42 18.54 73.16C18.54 72.8 19.42 72.08 19.82 72.11C20.22 72.14 20.75 72.67 20.74 73.04C20.73 73.63 20.16 74.39 19.74 74.36L19.74 74.36ZM27.37 30.21C27.23 30.19 27.08 30.19 27.13 30C27.14 29.94 27.28 29.92 27.37 29.89L27.35 29.88C27.35 29.99 27.35 30.11 27.35 30.22C27.35 30.23 27.37 30.21 27.37 30.21ZM45.57 28.96C45.08 29.39 45.22 29.95 45.22 30.49C45.22 30.78 45.29 30.87 45.57 30.71C45.9 30.52 46.23 30.33 46.59 30.25C46.87 30.19 47.28 30.1 47.47 30.45C47.61 30.74 47.29 30.94 47.19 31.18C47.02 31.65 46.54 31.7 46.17 31.85C45.93 31.95 45.62 31.92 45.36 31.88C44.95 31.82 44.66 32.54 44.2 32.02C43.96 31.76 43.71 30.56 43.77 30.12C43.87 29.31 44.59 28.59 43.94 27.66C43.78 27.42 44.15 26.77 44.34 26.34C44.44 26.1 44.68 25.85 44.98 25.94C45.23 26.02 45.46 26.24 45.5 26.52C45.53 26.72 45.53 27.03 45.4 27.14C44.86 27.58 45.06 28.03 45.32 28.5C45.39 28.64 45.47 28.78 45.57 28.95L45.57 28.96ZM51.13 35.21C51.12 35.92 50.26 36.91 49.36 37.21C48.76 37.42 48.06 37.28 47.52 37.7C47.34 37.85 47.24 37.73 47.12 37.63C46.88 37.43 46.69 37.17 46.3 37.18C45.87 37.19 45.57 36.93 45.57 36.48C45.57 36.22 46.48 35.79 46.74 35.98C47.15 36.28 47.56 36.2 47.99 36.21C48.67 36.21 49.23 36.04 49.56 35.36C49.83 34.83 50.34 34.84 50.84 34.89C51.01 34.91 51.14 35 51.13 35.21L51.13 35.21ZM40.04 28.24C39.18 28.16 38.55 27.53 38.6 26.8C38.65 26.07 39.43 25.2 39.99 25.27C40.72 25.36 41.3 26.02 41.24 26.71C41.21 27.19 40.36 28.27 40.04 28.24L40.04 28.24ZM50.35 21.64C50.67 21.97 51.02 21.87 51.34 21.93C51.93 22.03 52.33 23.04 51.98 23.56C51.8 23.83 51.49 24 51.43 24.36C51.4 24.54 51.18 24.57 51.03 24.53C50.28 24.34 49.73 23.9 49.33 23.24C49.13 22.91 49.49 22.78 49.54 22.53C49.62 22.11 50.03 21.89 50.35 21.64Z" fill="#284854" fill-opacity="1.000000" fill-rule="nonzero"/>
	</g>
</svg>
