<svg width="119.000000" height="100.000000" viewBox="0 0 119 100" fill="none" xmlns="http://www.w3.org/2000/svg" xmlns:xlink="http://www.w3.org/1999/xlink">
	<desc>
			Created with Pixso.
	</desc>
	<defs>
		<clipPath id="clip1_137">
			<rect id="Frame" width="119.000000" height="100.000000" fill="white" fill-opacity="0"/>
		</clipPath>
	</defs>
	<g clip-path="url(#clip1_137)">
		<path id="Vector" d="M118.36 22.03C118.28 22.5 118.7 23 118.15 23.42C118.03 23.52 118.04 23.88 118.07 24.1C118.16 24.64 118.06 25.16 118.07 25.69C118.07 26.39 117.89 26.96 117.46 27.52C117.06 28.02 117 28.74 116.44 29.16C116.24 29.31 116.36 29.61 116.33 29.84C116.31 30.03 116.32 30.34 116.23 30.37C115.29 30.69 115.42 31.67 115.03 32.32C114.66 32.93 114.17 33.46 113.6 33.89C113.34 34.08 113.11 34.23 113.21 34.52C113.42 35.12 112.58 35.64 112.99 36.13C113.47 36.71 112.64 37.13 112.99 37.73C113.21 38.11 112.81 38.77 112.9 39.32C112.93 39.51 112.97 39.73 112.91 39.89C112.6 40.82 112.63 41.71 113.18 42.55C113.2 42.59 113.21 42.64 113.22 42.69C113.22 42.74 113.21 42.79 113.2 42.83C112.77 43.65 113.26 44.45 113.21 45.27C113.14 46.13 113.19 47 113.19 47.86C113.19 48.14 113.26 48.43 113.04 48.68C112.83 48.92 112.79 49.29 112.92 49.49C113.4 50.2 113.21 50.84 112.8 51.46C112.59 51.76 112.69 51.94 112.83 52.22C113.11 52.75 113.44 53.3 113 53.94C112.79 54.25 112.89 54.58 113.18 54.83C113.56 55.18 113.65 55.59 113.24 55.94C112.83 56.28 113.08 56.45 113.31 56.7C113.4 56.79 113.47 57.05 113.44 57.07C112.79 57.52 113.14 58.2 113.02 58.77C113 58.86 112.89 58.97 112.92 59.03C113.43 60.01 112.66 60.77 112.45 61.62C112.38 61.9 112.19 62.23 112.43 62.41C113.1 62.89 112.82 63.39 112.5 63.86C112.26 64.23 112.87 64.59 112.38 65C112.06 65.27 112.77 65.83 112.36 66.26C112.67 66.56 112.26 67.07 112.69 67.33C112.92 67.46 112.76 67.62 112.69 67.8C112.62 67.97 112.58 68.18 112.62 68.35C112.76 68.89 113.11 69.4 112.64 69.94C112.88 70.41 113.09 70.88 112.63 71.35C113.26 72.21 112.5 73.06 112.61 73.92C112.65 74.19 112.67 74.55 112.53 74.76C112.15 75.34 112.36 75.84 112.62 76.35C112.82 76.73 113.08 77.09 112.72 77.51C112.51 77.76 112.7 77.94 112.82 78.15C112.98 78.41 112.94 78.72 112.87 78.99C112.61 79.95 112.49 82.01 112.71 82.88C112.76 83.05 112.96 83.2 112.83 83.39C112.34 84.13 112.45 84.84 112.88 85.56C112.92 85.62 112.88 85.75 112.88 85.84C112.89 86.19 112.26 86.46 112.47 86.58C112.87 86.8 112.94 87.05 112.87 87.37C112.74 87.91 113.27 88.41 112.91 88.97C112.62 89.41 112.95 90.02 112.72 90.4C112.44 90.88 113.11 91.16 112.77 91.58C112.54 91.88 112.26 92.25 112.58 92.69C112.61 92.74 112.56 92.88 112.51 92.95C111.79 94.28 111.76 94.28 111.76 95.44C111.76 95.93 111.74 96.32 111.1 96.21C110.69 96.9 109.66 96.54 109.28 97.3C109.25 97.37 109.02 97.35 108.87 97.36C107.38 97.42 105.94 97.7 104.51 98.12C104.2 98.21 103.81 98.3 103.53 98.19C102.74 97.89 101.92 98.16 101.15 98.01C100.38 97.87 99.53 98.16 98.83 97.63C97.93 97.96 97.02 97.55 96.14 97.68C95.31 97.8 94.52 98.11 93.69 97.74C93.51 97.65 93.43 97.8 93.36 97.89C93.05 98.28 92.78 98.19 92.39 97.96C91.65 97.5 90.95 97.78 90.31 98.25C89.83 98.6 89.6 98.64 89.18 98.18C88.97 97.95 88.85 97.89 88.62 98.05C88.42 98.17 88.16 98.26 88.06 98.43C87.73 99.01 87.29 98.87 86.88 98.63C86.09 98.15 85.32 98.08 84.51 98.52C84.32 98.63 84.19 98.77 83.91 98.59C83.59 98.39 83.18 98.41 82.84 98.67C82.77 98.72 82.61 98.77 82.59 98.75C81.87 97.75 80.96 98.85 80.12 98.54C79.51 98.3 78.73 99.13 78 98.53C77.97 98.5 77.84 98.6 77.75 98.62C77.31 98.74 76.99 99.27 76.36 98.86C76.1 98.69 75.52 99.16 75.04 99.09C74.85 99.06 74.61 99.13 74.48 99.03C74.18 98.8 73.94 98.73 73.61 98.99C73.51 99.06 73.39 99.1 73.27 99.09C73.15 99.08 73.04 99.04 72.94 98.96C72.03 98.19 71.13 98.73 70.22 98.97C69.64 99.12 69.1 99.45 68.46 99.37C68.14 99.32 67.82 99.43 67.68 98.95C67.62 98.71 67.2 99.15 67.03 98.82C65.98 99.21 64.94 99.21 63.89 98.84C63.49 98.7 63.23 99.09 62.83 99.1C61.66 99.15 60.46 98.8 59.32 99.29C59.29 99.3 59.24 99.26 59.2 99.23C57.82 98.44 56.38 99.32 54.98 99.07C54.12 99.53 53.12 99.17 52.25 99.54C52.04 99.63 51.9 99.64 51.74 99.5C51.49 99.28 51.2 99.39 50.92 99.37C50.5 99.33 50.08 99.59 49.72 99.58C49.29 99.56 48.82 99.17 48.4 99.45C48.03 99.69 47.58 99.05 47.3 99.61C46.79 99.48 46.33 99.36 45.75 99.48C45.3 99.58 44.77 99.64 44.27 99.64C43.6 99.63 42.97 99.96 42.25 99.68C41.82 99.52 41.22 99.52 40.74 99.85C40.64 99.92 40.44 99.96 40.34 99.9C39.53 99.45 38.64 100.1 37.82 99.67C37.5 99.5 37.06 99.95 36.94 99.87C36.04 99.3 35.22 100.01 34.36 99.99C33.57 99.99 32.78 99.94 31.99 99.86C31.01 99.75 30.04 99.69 29.1 99.37C28.48 99.79 27.8 99.46 27.15 99.51C26.98 99.52 26.84 99.65 26.64 99.54C25.89 99.13 25.08 99 24.25 98.83C23.19 98.61 22.07 98.51 21.07 97.93C20.69 97.71 20.18 97.74 19.97 97.23C19.88 97.03 19.66 97.05 19.48 97.05C19.23 97.05 18.97 97.07 18.83 96.84C18.41 96.13 17.67 95.84 17.06 95.36C16.27 94.75 15.83 93.81 15.16 93.07C14.47 92.3 14.08 91.35 13.61 90.45C13.56 90.36 13.45 90.28 13.46 90.2C13.62 88.89 12.78 87.61 13.34 86.28C13.37 86.2 13.17 85.98 13.2 85.95C13.97 85.05 14.07 83.71 15.31 83.07C15.98 82.72 16.5 82.18 17.34 82.34C17.59 82.39 18.88 82.9 19.13 83.19C19.26 83.35 19.34 83.48 19.55 83.48C19.64 83.48 19.75 83.5 19.83 83.46C20.06 83.35 19.87 83.22 19.79 83.16C19.49 82.87 19.54 82.62 19.62 82.19C19.71 81.67 19.32 81.06 19.71 80.49C19.76 80.42 19.66 80.14 19.6 80.13C19.08 80.01 19.13 79.6 19.15 79.23C19.17 78.77 18.71 78.23 19.38 77.87C19.43 77.85 19.41 77.69 19.43 77.61C19.64 76.92 18.94 76.32 19.19 75.68C19.45 75.03 19.62 74.44 19.19 73.8C19.1 73.67 19.12 73.41 19.17 73.24C19.43 72.43 19.5 71.62 19.15 70.81C19.13 70.77 19.18 70.7 19.16 70.67C18.93 70.23 19.86 70.4 19.54 69.84C19.38 69.55 19.44 69.1 19.43 68.72C19.41 68.34 19.42 67.96 19.43 67.57C19.44 67.29 19.33 66.97 19.6 66.76C20.41 66.08 20.12 65.27 19.85 64.5C19.72 64.11 19.77 63.78 19.79 63.4C19.81 62.68 20.09 62.02 20.08 61.26C20.07 60.56 20.19 59.78 20.32 59.05C20.46 58.27 20.4 57.35 21.19 56.79C21.47 56.59 21.48 56.34 21.25 56.06C21.05 55.81 21.08 55.48 21.17 55.23C21.34 54.75 21.55 54.26 21.86 53.85C22.15 53.46 21.68 53.09 22.06 52.6C22.46 52.09 22.63 51.25 22.58 50.48C22.56 50.25 22.51 49.87 22.74 49.85C23.75 49.75 23.46 49.25 23.18 48.68C23.14 48.6 23.25 48.42 23.31 48.3C23.59 47.71 24.16 47.1 24.11 46.55C24.03 45.86 24.45 45.45 24.52 44.91C24.57 44.5 24.84 44.23 24.92 43.86C24.96 43.69 25.23 43.5 25.11 43.37C24.56 42.72 25.06 42.22 25.3 41.69C25.38 41.51 25.41 41.34 25.42 41.15C25.46 40.48 25.14 39.85 25.38 39.12C25.6 38.47 25.44 37.69 25.43 36.97C25.42 36.74 25.42 36.43 25.29 36.3C24.9 35.95 25.05 35.52 24.95 35.12C24.84 34.72 24.37 34.36 24.31 33.9C24.23 33.3 23.83 32.95 23.42 32.68C22.81 32.27 22.05 32.08 21.76 31.28C21.69 31.1 21.46 31.01 21.27 31.06C20.23 31.29 19.38 30.65 18.44 30.44C18.27 30.41 18.05 30.18 17.95 30.23C17.28 30.59 16.6 30.62 15.87 30.49C15.15 30.35 14.52 30.92 13.87 30.95C12.83 30.99 11.9 31.76 10.82 31.35C10.73 31.32 10.63 31.32 10.54 31.34C8.69 31.75 7.71 31.74 5.86 31.3C5.58 30.69 5.07 31.54 4.77 31.12C4.51 30.77 4.14 30.78 3.76 30.74C3.25 30.69 3.32 30 2.78 29.85C2.11 29.65 1.88 28.86 1.42 28.36C1.08 27.97 1.04 27.38 0.59 27C0.18 26.65 0.11 25.96 0.33 25.54C0.57 25.06 0.34 24.76 0.31 24.37C0.28 23.94 -0.35 23.53 0.26 23.09C0.04 22.68 0.37 22.35 0.42 22.02C0.57 20.98 1.12 20.11 1.45 19.17C1.65 18.62 1.86 18 2.69 18.02C2.96 18.02 3.3 17.76 3.51 17.53C3.78 17.23 3.94 17.38 4.22 17.47C4.84 17.68 5.4 17.28 5.98 17.17C6.75 17.01 7.51 16.82 8.26 16.61C8.89 16.43 9.62 16.32 9.9 15.5C9.99 15.24 10.26 14.92 10.65 14.92C11.22 14.93 11.5 14.48 11.75 14.11C12.13 13.56 12.44 12.99 13.11 12.75C13.27 12.69 13.36 12.5 13.43 12.3C13.8 11.17 14.05 10.89 15.47 9.99C15.55 9.94 15.64 9.9 15.68 9.82C16.45 8.4 17.84 7.53 18.8 6.26C19.69 5.07 20.96 4.2 22.15 3.27C23.21 2.43 24.51 2.06 25.52 1.18C25.89 0.87 26.42 1.1 26.88 0.97C27.8 0.7 28.62 0.15 29.62 0.1C29.98 0.07 30.3 -0.14 30.66 0.13C30.76 0.2 30.96 0.26 31.05 0.21C31.8 -0.2 32.47 0.16 33.14 0.4C33.41 0.49 33.56 0.38 33.77 0.34C34.54 0.21 35.25 0.07 36.04 0.61C36.59 0.98 37.39 1.18 38.1 1.33C38.6 1.43 38.95 1.61 39.3 1.95C39.81 2.42 40.16 3.09 40.98 3.16C41.4 3.2 41.4 3.75 41.64 4.04C41.84 4.28 42.16 4.28 42.34 4.65C42.74 5.4 43.6 5.84 43.82 6.75C43.84 6.87 44 6.97 44.11 7.06C44.86 7.67 44.79 7.69 45.23 8.98C45.53 9.84 45.91 10.76 46.52 11.39C47.13 12.03 47.18 12.77 47.43 13.48C47.5 13.69 47.52 13.92 47.63 14.14C48.48 15.79 48.79 17.66 49.62 19.33C49.75 19.57 49.72 19.89 49.72 20.17C49.71 20.56 49.71 20.94 50.08 21.2C50.3 21.36 50.29 21.6 50.29 21.85C50.29 22.04 50.25 22.25 50.32 22.42C50.58 23.05 51.04 23.65 51.12 24.3C51.2 24.96 51.41 25.56 51.6 26.18C51.73 26.63 52.24 27.04 51.76 27.57C51.73 27.61 51.8 27.74 51.83 27.82C52.05 28.28 52.04 28.86 52.54 29.16C51.97 29.82 52.67 30.05 52.96 30.41C53.09 30.57 53.2 30.73 53.14 30.92C52.98 31.39 52.83 31.82 53.53 31.96C53.68 31.99 53.69 32.17 53.7 32.31C53.71 33.44 53.71 33.44 54.11 34.18C54.18 34.3 54.26 34.42 54.28 34.55C54.37 35.01 54.04 35.68 54.49 35.88C55.21 36.19 54.7 36.83 55.04 37.23C55.31 37.55 55.21 38.11 55.43 38.55C55.88 39.45 56.23 40.4 56.65 41.32C56.75 41.54 56.94 41.74 56.86 41.98C56.52 42.92 56.94 43.73 57.48 44.36C57.95 44.91 57.96 45.56 58.21 46.15C58.41 46.61 58.23 47.21 58.76 47.55C58.9 47.64 58.89 47.83 58.8 47.93C58.53 48.24 58.66 48.47 58.82 48.8C59.12 49.4 58.96 50.2 59.69 50.63C59.81 50.7 59.97 51.16 59.96 51.38C59.9 52.37 60.42 53.06 60.96 53.78C61.17 54.07 61.29 54.44 61.43 54.78C61.68 55.41 61.79 56.12 62.46 56.5C62.6 56.58 62.69 56.81 62.72 56.98C62.89 57.99 63.67 58.68 64.01 59.6C64.04 59.68 64.11 59.75 64.16 59.83C64.21 59.75 64.29 59.68 64.3 59.6C64.41 59.1 64.21 58.59 64.45 58.05C64.66 57.61 65.36 57.48 65.21 56.84C65.74 56.65 65.81 56.39 65.5 55.89C65.33 55.63 65.69 55.37 65.91 55.22C66.33 54.93 66.72 54.64 66.87 54.12C66.96 53.82 67.14 53.6 67.43 53.53C67.67 53.47 67.74 53.32 67.73 53.11C67.68 52.31 68.27 51.83 68.71 51.32C68.93 51.08 69.18 50.95 69.15 50.57C69.13 50.33 69.21 50.17 69.49 50.04C69.78 49.92 70.13 49.65 70.2 49.38C70.49 48.32 71.48 47.65 71.73 46.58C71.8 46.28 72.17 46.38 72.24 46.17C72.33 45.87 72.71 45.54 72.24 45.22C72.02 45.06 71.94 44.8 72.17 44.61C72.6 44.26 72.61 43.8 72.58 43.31C72.53 42.38 72.77 41.41 72.31 40.51C72.25 40.4 72.25 40.19 72.31 40.09C72.75 39.41 72.32 38.74 72.25 38.09C72.19 37.57 72.04 37.09 72.13 36.52C72.21 35.96 72.14 35.38 71.91 34.85C71.84 34.68 71.74 34.5 71.75 34.33C71.86 33.13 71.29 32 71.44 30.8C71.48 30.5 71.42 30.23 71.16 30.04C70.89 29.85 70.83 29.58 70.86 29.28C70.92 28.82 70.82 28.41 70.42 28.14C70 27.85 69.99 27.43 70.02 26.99C70.06 26.27 70.27 26.16 70.98 26.35C71.5 26.49 72.03 26.55 72.02 27.27C72.02 27.43 72.12 27.53 72.26 27.57C73.15 27.84 73.29 28.71 73.36 29.38C73.44 30.06 73.92 30.44 74.14 30.99C74.22 31.2 74.57 31.3 74.8 31.46C74.6 31.7 74.59 31.98 74.58 32.27C74.56 32.66 74.75 32.94 75.09 33.03C75.6 33.18 75.6 33.57 75.78 33.97C75.98 34.42 75.91 35.02 76.42 35.35C76.64 35.49 76.64 35.8 76.56 36.01C76.37 36.55 76.96 37.05 76.61 37.61C76.5 37.79 76.73 37.95 76.85 38.09C77.11 38.37 77.38 38.64 77.63 38.93C77.88 39.2 77.49 39.66 77.91 39.88C78.02 39.52 78.25 39.34 78.64 39.39C79.19 39.48 79.29 38.97 79.35 38.68C79.47 38.12 79.88 37.89 80.18 37.51C80.55 37.05 80.82 36.76 81.41 36.81C81.68 36.83 81.78 36.54 81.98 36.43C82.5 36.13 82.43 35.41 82.87 35.09C83.3 34.78 83.75 34.53 83.74 33.9C83.73 33.76 83.9 33.71 84.02 33.64C84.8 33.2 85.23 32.58 85.44 31.79C85.57 31.3 85.73 30.81 85.98 30.37C86.16 30.08 86.42 29.9 86.14 29.52C86.06 29.42 86.2 29.06 86.34 28.91C86.7 28.5 87 28.11 86.87 27.52C86.85 27.42 86.85 27.32 86.88 27.23C86.91 27.14 86.97 27.06 87.04 26.99C87.93 26.19 88.03 25.13 88.01 24.03C88 23.55 88.06 23.1 88.31 22.67C88.86 21.69 88.98 21.23 89 20.09C89 19.95 89.01 19.85 89.08 19.74C90.01 18.4 90.2 17.54 90.64 15.93C90.86 15.1 90.98 14.21 91.36 13.42C91.75 12.58 91.84 11.58 92.65 10.96C92.96 10.73 92.84 10.35 92.99 10.05C93.49 9.1 93.97 8.14 94.4 7.16C94.9 6.01 95.29 4.81 96.21 3.89C96.25 2.64 97.71 2.53 98.1 1.52C98.19 1.29 98.57 1.79 98.82 1.62C99.3 1.3 99.56 1.58 99.86 1.9C100.37 2.44 100.83 2.97 101.12 3.71C101.52 4.74 102.29 5.57 102.69 6.66C103.19 8.01 104.68 8.31 105.64 7.61C106.13 7.25 106.38 6.68 106.61 6.11C106.82 5.57 106.79 4.89 107.45 4.62C107.43 4.01 107.81 3.56 108.05 3.05C108.47 2.17 109.3 1.83 110.19 1.65C110.66 1.56 111.49 2.08 111.74 2.58C111.81 2.71 111.77 2.92 111.85 2.97C112.49 3.4 112.89 3.88 113.05 4.71C113.19 5.39 113.75 6.04 114.25 6.59C114.52 6.89 113.69 7.28 114.43 7.47C114.76 7.56 114.8 8.18 114.82 8.46C114.9 10.01 115.83 11.25 116.24 12.68C116.38 13.17 116.73 13.59 116.63 14.15C116.61 14.24 116.6 14.37 116.65 14.42C117.75 15.65 117.54 17.23 117.77 18.69C117.85 19.29 117.94 19.92 118.12 20.47C118.31 21.04 118.31 21.54 118.36 22.03ZM102.9 94L102.9 95.84C102.9 95.98 103.03 96.19 103.08 96.11C103.39 95.61 103.87 96.41 104.17 95.95C104.34 95.69 104.62 95.67 104.91 95.62C105.59 95.49 106.35 95.41 106.36 94.42C106.36 94.27 106.55 94.08 106.7 93.98C107.42 93.49 107.56 92.8 107.5 91.98C107.46 91.53 107.41 91.07 107.7 90.6C107.97 90.18 107.63 89.57 108 89.12C107.61 88.67 107.95 88.05 107.72 87.62C107.47 87.15 107.96 86.66 107.54 86.22C107.35 86.02 107.4 85.57 107.63 85.28C107.75 85.12 107.83 84.96 107.69 84.77C107.38 84.33 107.45 83.92 107.68 83.44C107.9 83 107.32 82.6 107.5 82.11C107.52 82.07 107.5 82 107.53 81.97C107.93 81.45 107.8 81.01 107.33 80.61C107.17 80.47 107.12 80.21 107.23 80.09C107.61 79.63 107.35 79.2 107.21 78.8C107.03 78.29 107.44 77.85 107.26 77.33C107.04 76.67 107.27 75.97 107 75.25C106.8 74.69 107.16 73.9 107.31 73.22C107.54 72.15 107.66 71.09 107.22 70.04C107.14 69.82 107.09 69.6 107.06 69.37C107.03 68.95 107.4 68.51 106.97 68.09C106.95 68.07 107.21 67.83 107.18 67.76C106.93 67.12 107.75 66.64 107.37 65.99C107.03 65.4 107.58 64.85 107.51 64.24C107.4 63.39 107.56 62.5 107.46 61.65C107.41 61.21 108 60.92 107.63 60.46C107.55 60.37 107.48 60.12 107.53 60.08C107.74 59.91 107.97 59.7 108.22 59.65C108.68 59.57 108.51 59.99 108.62 60.22C108.97 60.93 108.52 61.74 108.91 62.44C108.92 62.48 108.93 62.53 108.93 62.58C108.93 62.63 108.92 62.68 108.9 62.72C108.52 63.34 108.62 64.01 108.87 64.61C109.01 64.94 108.42 65.18 108.86 65.48C109.15 65.69 109.27 65.95 109.01 66.33C108.78 66.65 108.82 67.13 108.94 67.45C109.41 68.66 109.2 69.87 109.06 71.09C109.03 71.3 109.05 71.42 109.15 71.56C109.72 72.44 108.93 73.48 109.45 74.37C109.47 74.41 109.39 74.57 109.32 74.61C108.84 74.87 109 75.25 109.22 75.54C109.5 75.91 109.27 76.21 109.26 76.55C109.25 76.97 108.73 77.24 109.02 77.75C109.38 78.38 109.52 79.82 109.35 80.59C109.3 80.82 109.16 81 109.34 81.23C109.54 81.47 109.58 81.78 109.38 82.02C109.11 82.32 109.23 82.65 109.19 82.97C109.13 83.42 109.35 83.79 109.47 84.18C109.59 84.61 109.06 84.91 109.16 85.39C109.24 85.71 109.2 86.05 109.49 86.29C109.59 86.37 109.74 86.47 109.66 86.63C109.25 87.4 109.52 88.22 109.49 89.03C109.46 89.69 109.46 90.36 109.17 90.95C108.91 91.49 108.89 92.03 108.89 92.6C108.89 92.97 109.05 93.42 108.66 93.67C108.11 94.03 108.52 94.69 108.15 95.09C107.98 95.28 108.19 95.33 108.29 95.35C109.21 95.49 110.23 94.85 110.29 93.99C110.33 93.24 110.62 92.54 110.66 91.77C110.71 91.04 110.73 90.29 110.85 89.55C110.98 88.69 111.08 87.75 110.62 86.9C110.98 86.32 110.5 85.75 110.58 85.15C110.68 84.5 110.37 83.68 110.66 83.17C110.99 82.57 110.33 81.99 110.86 81.49C110.93 81.42 110.85 81.11 110.76 80.97C110.52 80.58 110.7 80.29 110.81 79.91C110.99 79.29 111.23 78.69 111.2 77.99C111.18 77.51 110.56 77.37 110.75 76.92C110.95 76.45 110.98 75.99 110.79 75.54C110.58 75.04 111.18 74.59 110.79 74.09C110.44 73.63 110.6 73.07 110.63 72.56C110.67 71.75 111.01 70.97 110.63 70.11C110.47 69.76 110.7 69.23 110.71 68.79C110.74 67.59 109.94 66.44 110.53 65.21C110.55 65.17 110.38 65.05 110.39 64.98C110.45 64.07 110.04 63.21 110.28 62.26C110.47 61.46 110.22 60.56 110.57 59.76C110.15 59.32 110.4 58.93 110.57 58.47C110.75 58.01 110.43 57.4 110.98 57.03C111.11 56.94 111.14 56.81 111 56.7C110.5 56.31 110.57 55.96 111.01 55.56C111.61 55.01 111.58 54.98 111.04 54.16C110.93 53.99 110.8 53.8 110.97 53.65C111.46 53.25 111.16 52.97 110.97 52.53C110.75 52.01 110.66 51.31 111.2 50.8C111.47 50.54 111.6 50.21 111.38 49.91C110.99 49.42 111.05 48.94 111.17 48.39C111.27 47.95 111.38 47.41 111.33 47.03C111.17 45.71 111 44.42 111.43 43.12C111.57 42.73 111.13 42.56 111.02 42.27C110.87 41.87 111.62 41.73 111.41 41.33C110.98 40.51 111.22 39.65 111.19 38.8C111.14 37.99 111.14 37.17 111.18 36.36C111.22 35.56 111.85 34.84 111.47 33.99C111.43 33.91 111.56 33.73 111.65 33.63C112.45 32.73 112.96 31.61 113.83 30.77C114.27 30.35 114.33 29.79 114.36 29.22C114.96 29.03 115.34 28.51 115.41 28C115.5 27.36 115.75 26.85 116 26.29C116.71 24.68 116.68 24.66 116.61 22.6C116.59 22.19 116.38 21.68 116.44 21.39C116.75 20.12 116.07 19.04 115.86 17.9C115.73 17.18 115.43 16.47 115.44 15.71C115.45 15.43 115.33 15.14 115.31 14.89C115.24 13.77 114.14 13.1 114.11 11.99C113.35 10.97 113.35 9.62 112.62 8.59C112.62 7.43 111.83 6.6 111.41 5.62C111.1 4.9 110.56 4.27 110.09 3.64C109.91 3.39 109.72 3.31 109.45 3.67C108.78 4.52 108.29 5.47 107.83 6.42C107.38 7.34 106.89 8.23 106.35 9.09C106.15 9.41 105.99 9.49 105.71 9.46C104.87 9.39 104.02 9.65 103.2 9.22C102.94 9.09 102.55 9.76 102.24 9.23C102.03 8.88 101.7 8.56 101.72 8.1C101.74 7.76 101.5 7.49 101.4 7.18C101.22 6.61 101.05 5.97 100.56 5.58C99.85 5.01 99.48 4.25 99.17 3.43C99.08 3.17 99.03 3.2 98.81 3.3C97.76 3.81 97.67 5.14 96.74 5.75C96.47 5.93 96.99 6.19 96.81 6.5C96.49 7.05 96.47 7.8 95.72 8.05C95.65 8.07 95.58 8.14 95.52 8.19C96.24 9.01 94.56 9.34 95.13 10.13C94.43 10.78 94.54 11.92 93.72 12.52C93.19 12.9 93.53 13.5 93.44 14C93.35 14.49 92.61 14.61 92.71 15.18C92.75 15.4 92.97 15.69 92.84 15.84C92.44 16.33 92.5 16.85 92.45 17.42C92.38 18.03 92.34 18.82 91.62 19.28C91.36 19.44 91.22 19.92 91.16 20.27C91.07 20.79 91.38 21.42 90.65 21.72C90.57 21.75 90.58 21.97 90.68 22.11C91.07 22.61 90.78 22.97 90.42 23.34C90.13 23.64 89.56 23.86 89.98 24.45C89.66 25.41 89.56 26.45 89.12 27.37C88.95 27.74 88.62 28.04 88.36 28.37C88.86 28.81 88.33 29.14 88.23 29.51C88.18 29.72 87.95 29.89 88 30.15C88.1 30.67 87.89 31.04 87.57 31.44C87.36 31.71 87.26 32.12 87.11 32.44C86.51 33.72 86.02 35.06 84.88 36.03C84.59 36.28 84.18 36.09 84.05 36.42C83.94 36.73 83.91 37.05 83.76 37.35C83.63 37.6 83.5 37.72 83.24 37.72C83.02 37.72 82.96 37.89 82.84 38.03C82.22 38.68 81.89 39.64 80.87 39.89C80.76 39.91 80.6 40.09 80.6 40.2C80.6 40.93 80.26 41.24 79.54 41.18C79.34 41.16 79.24 41.27 79.13 41.48C78.9 41.94 78.56 42.34 78.34 42.8C78.23 43.01 78.12 43.37 77.96 43.35C77.5 43.29 77.43 43.42 77.37 43.86C77.32 44.2 76.96 44.51 76.58 44.62C76.18 44.75 76.05 45.15 75.73 45.36C75.34 45.62 75.52 46.06 75.4 46.4C75.24 46.84 74.46 46.48 74.41 47.01C74.35 47.7 73.76 47.85 73.41 48.24C72.9 48.8 72.33 49.29 72.01 50.02C71.75 50.62 71.47 51.25 71.03 51.69C70.74 51.98 70.49 52.17 70.57 52.59C70.66 53.07 70.37 53.23 70.01 53.43C69.36 53.81 68.85 54.32 68.86 55.18C68.86 55.89 68.57 56.53 67.98 56.86C66.97 57.44 66.73 58.36 66.54 59.41C66.4 60.17 65.97 60.87 65.72 61.62C65.59 62.02 65.28 61.86 65.04 61.94C64.96 61.97 64.86 62.08 64.86 62.14C64.83 63.06 64.5 63.88 64.05 64.65C64.52 65.44 63.91 65.87 63.49 66.33C63.24 66.6 63.11 66.86 63.12 67.22C63.13 67.5 63.15 67.77 62.97 68.04C62.71 68.48 62.5 68.96 62.55 69.5C62.55 69.64 62.52 69.78 62.45 69.9C61.94 70.86 61.92 70.87 61.98 71.66C62 71.96 62 72.31 61.7 72.42C61.01 72.64 61.13 73.18 61.14 73.69C61.17 74.73 61.08 75.77 60.87 76.78C60.8 77.15 60.37 77.19 60.4 77.72C60.46 78.55 60.24 79.42 60.27 80.28C60.27 80.47 60.26 80.79 60.18 80.81C59.53 81.01 59.8 81.57 59.67 81.98C59.52 82.43 58.91 82.77 59.38 83.37C59.4 83.39 59.23 83.63 59.11 83.67C58.73 83.83 58.66 84.14 58.49 84.49C58.22 85.09 58.15 85.92 57.33 86.17C57.2 86.22 57.13 86.36 57.14 86.51C57.17 87.39 56.7 87.8 55.88 87.92C55.73 87.94 55.55 88.14 55.47 88.3C54.78 89.72 54.6 89.88 53.36 90.36C53.1 90.46 52.67 90.32 52.6 90.62C52.43 91.34 51.95 91.32 51.4 91.34C51.25 91.34 51 91.52 50.98 91.66C50.85 92.27 50.38 92.11 49.99 92.22C49.7 92.3 49.32 92.19 49.16 92.34C48.8 92.69 48.5 92.06 48.15 92.39C47.93 92.59 47.5 92.46 47.24 92.72C47.2 92.77 47.04 92.76 46.98 92.71C46.2 92.06 45.26 93.27 44.49 92.51C44.47 92.49 44.33 92.58 44.26 92.64C43.38 93.31 42.3 93.24 41.33 93.26C40.72 93.27 39.99 93.44 39.39 93.05C38.87 92.71 38.39 92.65 37.82 92.99C37.57 93.14 37.17 93.05 36.84 93.07C36.39 93.11 36.09 92.71 35.68 92.62C35.19 92.51 35.02 93.25 34.46 93.07C34.16 92.98 33.8 93.1 33.55 92.78C33.48 92.67 33.29 92.52 33.24 92.55C32.79 92.81 32.35 92.27 31.83 92.66C31.41 92.97 30.98 92.24 30.47 92.18C30.43 92.18 30.36 92.16 30.33 92.19C29.67 92.71 29.03 92.38 28.36 92.19C27.92 92.07 27.46 92.2 26.98 92.02C26.67 91.9 26.34 91.58 25.84 91.81C25.3 92.05 25.12 91.31 24.72 91.12C24.64 91.08 24.54 91.03 24.46 91.04C23.92 91.12 23.62 90.7 23.21 90.52C22.64 90.27 22.21 89.75 21.64 89.62C20.99 89.47 20.68 89.1 20.46 88.55C20.18 87.81 19.52 87.25 19.48 86.39C19.48 86.27 19.44 86.16 19.38 86.06C19.32 85.96 19.24 85.88 19.14 85.82C18.68 85.54 18.32 85.12 17.9 84.77C17.7 84.6 17.51 84.24 17.2 84.49C16.82 84.79 16.05 84.58 15.99 85.28C15.96 85.72 15.62 85.92 15.47 86.26C15.32 86.61 15.72 87.02 15.39 87.4C14.79 88.12 15.07 88.86 15.49 89.5C16.08 90.4 16.57 91.36 17.15 92.25C17.52 92.83 17.93 93.51 18.69 93.61C19.16 93.68 19.52 93.76 19.69 94.24C19.76 94.47 19.94 94.49 20.13 94.49C20.86 94.48 21.35 94.92 21.85 95.37C22.09 95.59 22.25 95.87 22.62 95.96C23.47 96.16 24.29 96.54 25.14 96.62C25.6 96.67 26.06 96.74 26.52 96.83C27.04 96.94 27.42 97.83 28.12 97.16C28.13 97.15 28.26 97.26 28.32 97.33C28.87 97.9 29.55 97.72 30.18 97.57C30.39 97.52 30.63 97.3 30.83 97.42C31.35 97.75 31.92 97.77 32.47 97.66C33.04 97.55 33.54 98.17 33.95 97.92C34.56 97.54 35.01 98 35.53 97.99C36.22 97.97 36.95 97.77 37.6 98.24C37.7 98.3 37.92 98.29 38.02 98.23C38.4 97.95 38.88 97.8 39.21 98.02C39.81 98.43 39.88 97.64 40.27 97.68C40.41 97.7 40.59 97.65 40.68 97.72C41.08 98.04 41.42 97.99 41.85 97.75C42.11 97.61 42.5 97.63 42.82 97.68C43.41 97.76 44.22 97.8 44.57 97.65C44.96 97.49 45.31 97.22 45.75 97.55C46.05 97.79 46.34 97.57 46.66 97.48C47.23 97.32 47.83 96.83 48.38 97.16C48.86 97.45 49.26 97.17 49.66 97.25C50.14 97.36 50.54 97.24 50.99 97.21C51.5 97.17 52.04 96.9 52.57 97.1C53.14 97.31 53.7 97.25 54.27 97.1C54.34 97.09 54.45 97.15 54.52 97.2C54.95 97.53 55.31 97.43 55.63 97.04C55.71 96.92 55.84 96.84 55.98 96.8C56.12 96.75 56.26 96.76 56.4 96.8C57.25 97.07 58.21 96.25 59.01 97.07C59.05 97.11 59.28 97.03 59.38 96.95C59.57 96.81 59.72 96.62 59.91 96.48C59.99 96.41 60.15 96.17 60.21 96.39C60.45 97.21 60.86 96.53 61.19 96.53C61.85 96.54 62.53 96.44 63.18 96.56C63.58 96.63 63.89 96.73 64.34 96.69C64.89 96.64 65.47 96.88 66.03 96.52C66.17 96.43 66.4 96.49 66.55 96.65C66.9 97.04 67.22 97.17 67.78 96.94C68.17 96.77 68.71 97.08 69.03 96.51C69.2 96.2 69.67 96.04 69.87 96.35C70.3 97.02 70.72 96.82 71.28 96.59C71.5 96.49 71.73 96.13 72.14 96.44C72.48 96.71 73.06 97.06 73.43 96.76C73.91 96.37 74.43 96.94 74.81 96.52C75.24 96.05 75.67 96.72 76.08 96.5C76.48 96.27 76.84 95.96 77.25 95.73C77.4 95.64 77.62 95.64 77.8 95.67C78.38 95.78 79.06 95.18 79.56 95.89C79.94 95.74 80.31 95.09 80.7 95.88C81.24 95.5 81.82 95.51 82.47 95.54C83.09 95.57 84.19 95.57 84.65 95.86C85.16 96.18 85.66 96.23 86.17 95.87C86.33 95.76 86.52 95.73 86.67 95.61C86.96 95.39 87.18 95.3 87.54 95.56C87.94 95.85 88.44 96.18 88.86 95.51C88.97 95.33 89.1 95.49 89.2 95.56C89.56 95.78 89.88 95.87 90.33 95.68C90.67 95.53 91.1 95.93 91.53 95.49C91.83 95.19 92.47 95.19 92.84 95.53C93.48 96.12 94.08 95.92 94.79 95.7C95.37 95.54 96.11 94.92 96.68 95.85C96.75 95.97 97.16 96 97.34 95.92C97.7 95.76 98 95.79 98.36 95.91C98.82 96.04 99.24 95.94 99.14 95.28C99.09 94.95 99.27 94.65 99.53 94.58C100.15 94.43 99.98 93.97 100 93.57C100.02 93.12 99.91 92.79 99.51 92.47C98.81 91.91 97.82 92 97.16 91.36C97.08 91.28 96.76 91.34 96.64 91.43C96.04 91.89 95.42 91.82 94.88 91.46C94.43 91.15 94.2 91.74 93.85 91.57C93.51 91.4 93.19 91.19 92.85 91.07C92.69 91.02 92.45 91.08 92.32 91.17C92.05 91.36 91.77 91.27 91.49 91.32C90.79 91.46 90.6 90.55 90.09 90.57C89.6 90.59 89.18 91.28 88.55 90.89C88.23 90.69 87.96 90.83 87.63 90.89C87.01 91 86.46 91.46 85.76 91.23C84.71 90.9 83.65 90.84 82.65 91.41C82.45 91.52 82.33 91.59 82.18 91.39C81.9 91.02 81.65 91 81.23 91.29C80.87 91.53 80.5 91.22 80.3 90.86C80.2 90.66 80.19 90.41 80.12 90.18C79.9 89.43 79.95 89.26 80.65 89.04C81.36 88.82 82.05 88.59 82.59 88.02C82.79 87.8 83.25 87.55 83.44 87.64C84.16 87.99 84.66 87.45 85 87.13C85.63 86.57 86 85.79 87.02 85.72C87.39 85.69 87.67 85.01 88.08 84.81C88.5 84.6 88.6 84.36 88.56 83.94C88.51 83.39 88.7 82.99 89.32 82.98C89.79 82.97 89.79 82.52 89.89 82.27C90.04 81.88 90.14 81.5 90.44 81.15C90.86 80.65 91.42 80.21 91.41 79.45C92.14 79.19 91.96 78.58 91.96 78.03C91.97 77.19 92.24 76.35 91.73 75.5C91.53 75.16 91.73 74.52 91.83 74.11C91.97 73.55 92.08 73.09 91.7 72.67C91.25 72.18 92.02 71.6 91.53 71.14C91.49 71.11 91.46 71.08 91.43 71.04C90.99 70.32 90.44 69.65 90.56 68.72C90.59 68.45 90.4 68.29 90.24 68.11C89.66 67.44 88.61 67.06 88.81 65.88C88.81 65.85 88.76 65.77 88.73 65.77C87.95 65.63 88.06 64.84 87.73 64.37C87.6 64.18 87.57 63.99 87.31 63.88C87.06 63.79 86.87 63.52 86.67 63.32C86.49 63.13 86.45 62.85 86.58 62.66C86.7 62.49 87.03 62.28 87.15 62.33C87.8 62.62 88.68 62.58 89.07 63.26C89.37 63.78 89.81 64.2 90 64.82C90.12 65.22 90.24 65.74 90.9 65.74C91.04 65.74 91.47 66.2 91.2 66.63C91.08 66.82 91.14 67.06 91.35 67.07C92.3 67.14 92.42 67.88 92.54 68.57C92.64 69.1 92.88 69.53 93.18 69.95C93.39 70.24 93.77 70.57 93.43 71.04C93.39 71.09 93.49 71.35 93.57 71.39C94.2 71.68 94.23 72.22 94.26 72.8C94.27 73.11 94.5 73.5 94.38 73.69C94.1 74.11 94.49 74.3 94.52 74.59C94.57 74.92 94.59 75.24 94.36 75.55C93.8 76.32 94.28 77.34 93.79 78.14C93.77 78.18 93.82 78.31 93.87 78.36C94.16 78.64 94.41 78.97 94.18 79.36C93.98 79.71 93.96 80.23 93.46 80.35C93.15 80.42 93.1 80.6 93.12 80.86C93.16 81.23 92.92 81.46 92.77 81.76C92.36 82.55 91.54 82.98 91.12 83.76C90.94 84.1 90.94 84.58 90.42 84.73C89.86 84.88 90.22 85.5 89.98 85.86C89.85 86.05 89.71 86.07 89.54 86.13C88.96 86.32 88.36 86.47 88.17 87.19C88.15 87.26 88.1 87.32 88.05 87.37C88 87.42 87.94 87.46 87.87 87.48C86.79 87.72 86.15 88.76 85.09 89.03C84.96 89.06 84.81 89.12 84.97 89.29C85.04 89.35 85.11 89.42 85.18 89.48C85.36 89.63 85.57 89.61 85.68 89.44C85.95 89.03 86.26 89.12 86.62 89.3C86.76 89.37 86.93 89.7 87.08 89.46C87.53 88.73 88.39 89.31 88.87 88.85C89.46 88.3 90.12 88.85 90.66 88.67C91.19 88.49 91.43 88.73 91.67 89.02C91.79 89.17 91.91 89.39 92.07 89.29C92.99 88.7 93.75 89.38 94.54 89.62C94.99 89.75 95.33 89.85 95.85 89.72C96.32 89.61 96.88 89.88 97.28 89.35C97.31 89.31 97.49 89.32 97.54 89.37C97.95 89.75 98.45 89.57 98.91 89.6C99.1 89.61 99.31 89.6 99.38 89.82C99.59 90.54 100.3 90.54 100.79 90.87C101.01 91.02 101.13 90.97 101.11 90.69C101.07 90.13 101.15 89.59 100.87 89.03C100.56 88.45 101.14 87.86 101.1 87.25C101.1 87.16 101.03 87.07 100.97 87C100.73 86.7 100.72 86.26 100.89 86.06C101.23 85.63 100.78 85.36 100.8 85.01C100.83 84.57 101.17 84.25 101.12 83.79C101.09 83.4 101.13 83.02 100.78 82.75C100.46 82.51 100.46 82.08 100.59 81.83C100.9 81.22 100.93 80.69 100.56 80.11C100.47 79.97 100.48 79.7 100.64 79.57C101.37 79.02 101.13 78.42 100.71 77.85C100.52 77.58 100.6 77.29 100.53 77.03C100.38 76.49 100.94 76.02 100.7 75.55C100.44 75.03 100.61 74.52 100.55 74.01C100.52 73.78 100.52 73.51 100.61 73.31C101.04 72.35 100.77 71.36 100.74 70.37C100.73 69.7 100.3 69.03 100.81 68.33C100.94 68.15 100.95 67.7 100.82 67.5C100.32 66.78 100.71 66.13 100.94 65.51C101.09 65.13 101.11 64.91 100.81 64.65C100.48 64.37 100.5 64.11 100.81 63.82C100.92 63.71 101.14 63.63 100.98 63.38C100.49 62.56 101.14 61.68 100.86 60.82C100.72 60.39 101.27 59.9 101.84 59.93C102.45 59.97 102.31 60.42 102.12 60.75C101.98 60.99 102.2 61.08 102.21 61.23C102.23 61.99 102.45 62.75 102.06 63.47C102 63.57 101.97 63.69 101.97 63.81C101.97 63.93 102 64.05 102.06 64.15C102.65 65.31 102.11 66.5 102.08 67.65C102.07 68.33 102.01 68.93 102.3 69.54C102.39 69.75 102.62 69.89 102.51 70.17C102.09 71.18 102.17 72.2 102.44 73.22C102.06 73.74 102.88 74.47 102.14 74.92C101.95 75.05 102.16 75.15 102.18 75.26C102.27 75.81 102.33 76.37 102.65 76.85C102.75 77.02 102.92 77.21 102.77 77.36C102.19 77.97 102.62 78.67 102.56 79.32C102.53 79.69 102.49 80.06 102.41 80.43C102.26 81.19 101.85 82 102.46 82.78C102.65 83.02 102.52 83.3 102.4 83.58C102.24 83.96 102.8 84.04 102.81 84.37C102.82 84.46 102.8 84.59 102.74 84.63C102.07 85.07 102.33 85.58 102.64 86.08C102.71 86.19 102.76 86.27 102.7 86.44C102.45 87.04 102.62 87.75 102.21 88.32C102.11 88.47 101.93 88.61 102.16 88.77C102.63 89.11 102.52 89.6 102.54 90.07C102.57 90.71 102.31 91.44 102.98 91.93C103.09 92.01 103.05 92.06 102.99 92.16C102.73 92.77 103.04 93.46 102.9 94ZM31.26 1.98C29.68 1.79 27.38 2.56 26.24 3.15C25.42 3.57 24.69 4.18 23.73 4.29C23.64 4.31 23.56 4.35 23.49 4.41C22.26 5.47 20.95 6.44 19.75 7.54C19.3 7.96 19.26 8.71 18.57 8.9C17.81 10.09 16.52 10.79 15.76 11.98C15.69 12.09 15.61 12.31 15.56 12.31C14.94 12.23 15.01 12.77 14.77 13.06C14.53 13.37 14.01 13.51 13.84 13.89C13.54 14.58 12.89 14.94 12.49 15.52C12.07 16.15 11.3 16.35 10.83 16.99C10.45 17.49 9.71 17.83 9.07 17.99C8.65 18.1 8.5 18.86 7.92 18.46C6.8 18.72 5.66 18.89 4.52 18.97C4.08 19 3.92 19.21 4.06 19.61C4.12 19.79 4.2 19.98 4.32 20.11C4.86 20.68 5.03 21.28 4.62 22C4.55 22.1 4.6 22.28 4.62 22.43C4.74 23.47 4.61 23.45 4.12 24.29C3.71 25 3.19 25.26 2.45 25.31C2.07 25.34 1.92 25.54 2.18 25.86C2.38 26.11 2.64 26.31 2.4 26.66C3.32 27.16 3.76 28.11 4.47 28.81C4.69 29.02 4.83 28.94 5.05 28.83C5.27 28.73 5.49 28.65 5.64 28.46C6.4 27.53 7.08 26.52 8.16 25.93C8.59 25.02 9.67 24.91 10.25 24.2C10.36 24.07 10.57 24.01 10.74 23.93C11.07 23.8 11.26 24.1 11.51 24.2C11.89 24.36 11.5 24.58 11.45 24.74C11.28 25.23 10.99 25.65 10.48 25.82C10 25.99 9.71 26.36 9.37 26.69C8.72 27.31 8.21 28.09 7.38 28.51C7.11 28.66 7.13 28.9 7.18 29.13C7.23 29.36 7.44 29.36 7.64 29.35C8.81 29.29 10 29.54 11.17 29.21C11.34 29.16 11.41 29.2 11.52 29.26C12.21 29.69 12.81 29.46 13.37 29C13.56 28.84 13.81 28.68 14 28.8C14.48 29.09 14.83 29.05 15.21 28.63C15.42 28.4 15.76 28.46 16.02 28.5C16.52 28.6 17.18 28.11 17.49 28.91C18.02 28.85 18.55 28.71 19.09 28.76C19.3 28.78 19.45 28.88 19.57 29.03C19.85 29.38 20.19 29.5 20.56 29.24C21.09 28.87 21.41 29.15 21.77 29.52C22.21 29.97 22.72 30.36 23.2 30.78C23.93 30.53 23.99 31.33 24.33 31.62C24.88 32.07 25.42 32.66 25.44 33.49C25.45 33.99 25.93 34.17 26.12 34.53C26.32 34.93 25.74 35.53 26.09 35.82C26.82 36.41 26.35 37.12 26.41 37.76C26.43 37.92 26.35 38.08 26.43 38.27C26.67 38.86 26.65 39.45 26.45 40.06C26.32 40.46 26.34 40.92 26.32 41.35C26.31 41.67 26.7 41.97 26.22 42.32C25.93 42.54 26.48 42.94 26.27 43.33C25.95 43.93 25.6 44.53 26 45.26C26.08 45.41 25.96 45.61 25.88 45.79C25.56 46.45 25.41 47.18 25.03 47.82C24.72 48.33 24.35 48.88 24.73 49.53C24.82 49.69 24.78 49.79 24.67 49.87C24.19 50.21 24.29 50.7 24.31 51.17C24.33 51.9 24.17 52.58 23.72 53.14C23.41 53.54 23.4 53.91 23.51 54.34C23.55 54.46 23.79 54.59 23.61 54.68C22.93 55.02 23.4 55.66 23.23 56.14C23.14 56.39 23.43 56.79 23.01 57.06C22.93 57.11 22.86 57.38 22.91 57.43C23.35 57.91 23.12 58.26 22.68 58.44C22.11 58.67 22.22 59.06 22.47 59.32C22.88 59.75 22.99 60.08 22.48 60.48C22.39 60.56 22.3 60.79 22.34 60.85C22.83 61.5 22.48 61.77 21.89 61.98C21.74 62.04 21.71 62.28 21.79 62.35C22.18 62.7 22.16 63.09 22.01 63.55C21.88 63.97 22.26 64.33 22.07 64.86C21.83 65.53 21.98 66.32 21.78 67.08C21.65 67.62 22.14 68.27 21.48 68.82C21.34 68.94 21.33 69.5 21.64 69.73C22.11 70.08 21.86 70.32 21.59 70.62C21.16 71.11 21.01 71.79 21.22 72.35C21.4 72.82 21.48 73.11 21.08 73.43C20.85 73.61 21.05 73.74 21.15 73.88C21.26 74.03 21.55 74.2 21.42 74.33C21 74.79 21.52 75.21 21.4 75.62C21.27 76.07 21.4 76.53 21.21 77.01C21.03 77.47 21.12 78.04 21.65 78.4C21.83 78.53 22.15 78.83 21.99 78.95C21.51 79.35 22.22 79.95 21.68 80.3C21.48 80.43 21.36 80.67 21.57 80.91C21.75 81.11 21.84 81.42 21.71 81.56C21.32 82 21.54 82.4 21.77 82.72C22.06 83.11 22.11 83.56 22.01 83.94C21.8 84.72 22.56 85.58 21.81 86.29C21.8 86.3 21.87 86.36 21.89 86.4C22.09 86.97 22.2 87.56 22.63 88.04C23.12 88.6 23.76 89.03 24.47 89.27C25.08 89.48 25.68 89.86 26.33 89.43C26.52 89.3 26.57 89.46 26.68 89.5C27.05 89.63 27.26 89.53 27.09 89.13C27 88.9 26.88 88.71 26.9 88.46C26.93 88.05 26.77 87.64 27.07 87.22C27.46 86.66 26.51 86.54 26.6 86.02C26.65 85.79 26.6 85.54 26.6 85.31C26.6 84.59 26.6 83.86 26.6 83.15C26.6 82.76 26.75 82.19 26.56 82.03C25.94 81.5 26.35 80.92 26.32 80.38C26.28 79.85 26.2 79.29 26.34 78.8C26.49 78.28 26.3 77.83 26.3 77.35C26.3 76.83 26.67 76.28 26.2 75.78C26.09 75.67 26.16 75.57 26.18 75.43C26.43 74.06 26.43 72.73 25.9 71.4C25.64 70.74 25.52 70.01 26.14 69.43C26.29 69.29 26.4 69.05 26.3 68.92C25.8 68.29 26.42 67.47 25.93 66.83C25.68 66.51 26.02 66.23 26.21 66.01C26.37 65.83 27.39 65.93 27.4 66.08C27.47 66.88 28.17 67.57 27.96 68.32C27.84 68.79 28.28 69.21 28 69.48C27.47 69.98 28.06 70.35 28.03 70.78C27.97 71.47 28.17 72.2 27.76 72.86C28.11 73.37 27.98 73.95 28.02 74.51C28.06 75.03 28.09 75.57 28.21 76.08C28.32 76.51 28.33 76.86 28.14 77.29C27.9 77.81 27.84 78.4 28.38 78.85C28.53 78.98 28.69 79.22 28.58 79.34C28.06 79.9 28.71 80.53 28.37 81.15C28.11 81.63 28.46 82.24 28.54 82.79C28.61 83.28 28.1 83.86 28.2 84.33C28.28 84.72 28.19 85.18 28.45 85.56C28.62 85.82 28.71 86.15 28.78 86.47C28.98 87.5 29.57 88.52 28.78 89.57C28.59 89.81 28.87 90.15 29.27 90.16C30.21 90.18 31.15 90.09 32.06 90.44C32.24 90.5 32.44 90.5 32.62 90.44C32.9 90.33 33.16 90.28 33 89.75C32.83 89.17 32.44 88.65 32.39 88.1C32.35 87.55 32.33 86.88 32.78 86.35C33.3 85.73 32.33 85.12 32.69 84.47C32.71 84.43 32.75 84.39 32.77 84.35C33.03 83.95 32.91 83.51 32.84 83.11C32.81 82.9 32.49 82.66 32.64 82.47C33.24 81.67 32.45 80.77 32.88 79.96C33.11 79.53 32.47 79.16 32.67 78.76C33.28 77.62 32.5 76.58 32.46 75.49C32.44 75.11 32.26 74.79 32.6 74.49C32.93 74.19 32.94 73.87 32.78 73.46C32.51 72.78 32.53 72.08 32.77 71.39C32.81 71.26 32.9 71.05 32.85 71.01C32.24 70.49 32.32 70.01 32.86 69.48C32.98 69.36 32.98 68.96 32.87 68.79C32.23 67.8 32.98 66.85 32.92 65.88C32.91 65.58 33.3 65.6 33.5 65.69C33.84 65.84 34.48 67.25 34.28 67.52C33.91 68.01 34.12 68.37 34.3 68.82C34.38 68.99 34.64 69.14 34.46 69.43C34.08 70 34.41 70.52 34.68 71.02C34.79 71.23 35.01 71.43 34.79 71.65C34.02 72.41 34.28 73.34 34.43 74.19C34.49 74.55 34.37 74.8 34.38 75.07C34.41 75.67 33.83 76.2 34.09 76.7C34.5 77.45 34.07 78.27 34.37 78.93C34.72 79.72 34.53 80.37 34.35 81.1C34.24 81.52 34.27 81.97 34.44 82.37C34.69 82.94 34.77 83.56 34.43 84.14C34.27 84.42 34.28 84.74 34.34 84.97C34.56 85.8 34.24 86.64 34.38 87.39C34.5 88.06 34.03 88.75 34.52 89.36C34.76 89.66 36.13 90.73 36.58 90.87C36.67 90.9 36.74 90.99 36.83 91.01C37.73 91.25 38.68 91.18 39.6 91.22C39.99 91.24 40.7 91.56 41 90.81C41.08 90.64 41.33 90.84 41.49 90.88C42.37 91.06 43.25 91.21 44.09 90.81C44.37 90.67 44.52 90.35 44.94 90.6C45.23 90.77 45.57 90.22 45.96 90.52C46.44 90.89 46.9 90.82 47.39 90.46C47.62 90.28 48.19 90.64 48.19 90.27C48.18 89.94 47.74 89.62 47.48 89.3C47.46 89.27 47.39 89.28 47.34 89.29C46.8 89.3 46.6 88.88 46.51 88.47C46.38 87.87 46.04 87.5 45.51 87.29C45.3 87.21 45.16 87.11 45.19 86.9C45.31 86.12 45.01 85.63 44.29 85.35C44.05 85.26 44.1 84.95 44.02 84.72C43.71 83.76 43.63 82.68 42.72 81.99C42.63 81.93 42.67 81.72 42.61 81.6C42.19 80.64 42.21 79.59 42.06 78.59C41.91 77.62 41.58 76.59 42.31 75.67C42.36 75.62 42.35 75.47 42.31 75.39C42.01 74.77 42.49 74.07 42.07 73.42C41.91 73.17 41.9 72.66 42.16 72.33C42.38 72.02 42.32 71.69 42.31 71.37C42.29 70.54 42.56 69.85 42.97 69.13C43.46 68.26 44 67.33 44 66.31C44.01 65.57 44.37 65.17 44.8 64.73C45.08 64.46 45.43 64.37 45.67 64.65C45.87 64.9 46.06 65.28 45.76 65.62C45.32 66.13 45.17 66.76 45.01 67.39C44.86 68.02 44.85 68.71 44.39 69.22C43.91 69.76 44.26 70.42 44.09 71C43.96 71.41 44.23 71.92 43.9 72.25C43.46 72.69 44.18 73.13 43.83 73.53C44.14 74.35 44.2 75.16 43.76 75.95C44.07 76.53 43.69 77.25 44.18 77.82C44.39 78.06 44.7 78.41 44.52 78.82C44.11 79.78 44.58 80.53 45.16 81.19C45.56 81.65 45.86 82.2 45.99 82.71C46.32 84 46.98 84.92 48.11 85.56C48.39 85.72 48.84 86.11 48.8 86.22C48.48 87.07 49.42 87.03 49.59 87.5C50.31 87.49 50.54 87.99 50.6 88.58C50.65 88.99 50.9 89 51.19 89C51.33 89 51.48 88.97 51.61 89.01C52.07 89.15 52.15 88.29 52.67 88.61C52.83 88.7 52.92 88.54 53.01 88.45C53.45 87.97 54.39 88.01 54.42 87.09C55.09 86.82 55.63 86.43 55.81 85.67C56.55 85.47 56.65 84.89 56.67 84.25C56.67 84.2 56.82 84.14 56.89 84.11C57.38 83.93 57.52 83.57 57.45 83.09C57.38 82.6 58.23 82.7 58.05 82.11C57.92 81.69 58.13 81.3 58.31 80.9C58.48 80.52 58.27 79.96 58.59 79.68C59.08 79.26 58.35 78.83 58.65 78.56C59.12 78.14 59.05 77.7 58.9 77.21C58.79 76.8 59.25 76.51 59.17 76.13C59.09 75.79 58.87 75.51 59.4 75.3C59.72 75.17 58.97 74.76 59.43 74.47C59.81 74.23 59.76 73.82 59.76 73.44C59.76 73.1 59.79 72.76 59.75 72.43C59.71 72.08 60.04 71.71 59.92 71.52C59.58 70.94 60.41 71.24 60.34 70.83C60.28 70.51 60.23 70.15 60.73 69.9C61.19 69.67 60.42 69.26 60.61 68.91C60.83 68.51 60.72 67.93 61.16 67.69C61.44 67.55 61.54 67.35 61.47 67.14C61.17 66.3 62.2 65.65 61.79 64.78C61.74 64.67 61.89 64.55 62.04 64.5C62.64 64.29 62.01 63.29 62.84 63.23C62.82 63.19 62.81 63.15 62.78 63.11C62.48 62.67 62.64 62.31 62.97 61.97C63.13 61.82 63.19 61.72 62.9 61.6C62.28 61.36 61.95 60.91 61.69 60.23C61.44 59.57 61.11 58.97 61.18 58.23C61.2 58.01 60.99 57.96 60.85 57.84C60.59 57.6 60.24 57.21 60.39 56.9C60.89 55.91 59.85 55.67 59.62 55.04C59.21 55.36 59.23 55.06 59.19 54.76C58.99 53.54 58.48 52.43 57.77 51.44C57.35 50.85 57.2 50.16 56.94 49.52C56.82 49.24 56.98 48.82 56.86 48.54C56.23 47.1 55.89 45.55 55.13 44.17C54.98 43.9 54.98 43.72 55.06 43.41C55.49 41.87 55.23 41.18 53.96 39.97C53.74 39.76 53.42 39.38 53.64 39.18C54.22 38.63 53.76 38.28 53.51 37.87C53.32 37.55 52.98 37.26 52.93 36.93C52.74 35.73 52.17 34.63 52.05 33.42C52.03 33.18 52.06 32.94 51.85 32.77C51.27 32.29 51.55 31.27 50.72 30.93C50.63 30.89 50.61 30.57 50.63 30.39C50.69 29.82 50.9 29.24 50.36 28.77C50.31 28.73 50.36 28.58 50.34 28.49C50.16 27.54 50.2 26.53 49.54 25.71C49.42 25.56 49.41 25.2 49.51 25.02C49.79 24.5 49.56 24.18 49.21 23.88C48.83 23.56 48.6 23.26 48.89 22.73C48.99 22.55 48.96 22.09 48.87 22.05C48 21.69 48.32 20.84 48.07 20.24C47.82 19.64 47.76 18.98 47.24 18.48C47.03 18.27 46.86 17.87 46.91 17.43C47.05 16.31 47 16.28 46.08 15.39C45.91 15.22 45.77 15.06 45.75 14.79C45.67 13.69 45.31 12.74 44.31 12.15C44.1 12.01 44.04 11.78 44.04 11.52C44.04 11.34 44.05 11.06 43.94 10.99C43.3 10.57 43.18 9.81 42.86 9.21C42.26 8.1 41.35 7.19 40.9 5.99C40.71 5.48 40.27 5.16 39.85 4.87C39.43 4.57 38.89 4.4 38.58 4.03C37.79 3.1 36.61 3.04 35.62 2.59C34.23 1.97 32.7 1.92 31.26 1.98ZM73.8 43.6C73.89 43.71 73.97 43.84 74.08 43.9C74.28 44.01 74.58 43.75 74.6 43.47C74.61 43.3 74.51 43.22 74.35 43.21C74.07 43.19 73.96 43.43 73.8 43.6Z" fill="#284855" fill-opacity="1.000000" fill-rule="nonzero"/>
		<path id="Vector" d="M110.51 25.88C109.9 25.88 109.32 25.95 108.8 25.41C108.48 25.08 107.84 25.23 107.59 25.69C107.37 26.12 107.1 26.18 106.71 26.18C106.53 26.18 106.3 26.17 106.17 26.26C105.3 26.85 104.81 25.94 104.15 25.73C103.99 25.68 103.99 25.3 104.16 25.1C104.34 24.89 104.53 24.57 104.85 24.84C105.41 25.3 105.8 24.74 106.26 24.63C106.22 23.95 107.18 24.41 107.19 23.81C107.2 23.25 107.67 23.03 107.95 22.66C108.09 22.46 108 22.32 107.91 22.14C107.74 21.81 107.58 21.47 107.44 21.13C107.18 20.5 107.56 19.85 108.21 19.83C108.69 19.82 109.16 19.81 109.64 19.85C110.2 19.89 110.5 20.26 110.29 20.82C110.16 21.16 110.45 21.65 109.92 21.85C109.53 22 109.54 22.48 109.31 22.78C109.16 22.97 109.23 23.13 109.36 23.28C109.97 23.96 110.52 24.72 111.61 24.46C111.7 24.44 111.8 24.43 111.89 24.44C112.33 24.47 112.53 24.88 112.25 25.22C111.95 25.58 111.67 26.01 111.08 25.88C110.9 25.85 110.7 25.88 110.51 25.88L110.51 25.88ZM113.06 18.25C112.8 18.68 112.54 18.93 112.3 18.98C112.21 19 112.11 18.98 112.02 18.98C111.74 18.96 111.42 19.06 111.26 18.78C111.11 18.49 111 18.18 110.96 17.86C110.88 17.41 111.59 16.75 112.14 16.68C112.23 16.67 112.44 16.77 112.61 16.93C113.02 17.3 113.22 17.97 113.06 18.25ZM104.03 17.18C104.5 17.15 105.1 17.74 105.2 18.17C105.27 18.52 104.69 19.45 104.33 19.52C103.98 19.58 103.48 19.37 103.34 19.2C103.09 18.91 103.13 18.11 103.25 17.71C103.32 17.5 103.81 17.19 104.03 17.18ZM29.75 23.34C30.27 22.55 29.95 21.72 29.8 20.83C29.68 20.11 29.59 19.32 29.94 18.58C30.12 18.2 30.08 17.76 29.95 17.34C29.71 16.53 29.33 15.68 30.45 15.18C30.65 15.09 30.6 14.85 30.62 14.66C30.65 14.29 30.48 13.88 30.72 13.54C30.87 13.32 30.78 13.19 30.63 13.09C30.07 12.74 30.04 12.3 30.43 11.83C30.69 11.52 30.58 11.2 30.61 10.87C30.72 9.69 31.15 8.62 31.78 7.64C31.94 7.39 32.15 7.41 32.31 7.7C32.4 7.86 32.16 8.27 32.53 8.17C32.76 8.11 33.25 8.08 33.18 7.57C33.03 6.67 33.64 6.09 34.03 5.39C34.23 5.05 34.49 5.09 34.74 5.19C35.05 5.31 35.41 5.57 35.52 5.76C36.1 6.84 37.2 7.61 37.21 9.04C37.21 9.69 37.68 10.35 38.14 10.9C38.42 11.24 38.78 11.66 38.18 12.07C38.14 12.09 38.12 12.14 38.09 12.18C38.85 12.44 38.08 13.23 38.56 13.58C38.92 13.84 38.96 14.22 38.89 14.61C38.8 15.12 39.03 15.53 39.24 15.95C39.37 16.21 39.58 16.41 39.31 16.7C39.1 16.93 39.2 17.13 39.4 17.31C39.82 17.69 39.84 18.07 39.52 18.57C39.36 18.81 39.44 19.18 39.57 19.52C39.71 19.92 40.3 20.24 39.85 20.78C40.08 21.21 40.03 21.6 39.88 22.07C39.84 22.22 39.87 22.44 39.72 22.62C39.47 22.91 38.92 23.12 39.37 23.65C39.09 24.06 39.27 24.41 39.48 24.78C39.61 25.02 39.82 25.24 39.76 25.56C39.73 25.79 39.77 26 39.52 26.17C38.59 26.81 38.42 27.73 38.75 28.74C38.89 29.15 39.07 29.41 38.43 29.15C38.37 29.12 38.15 29.39 38.07 29.56C37.74 30.21 37.23 30.69 36.62 31.06C36.37 31.21 36.21 31.41 36.03 31.62C35.67 32.06 35.25 32.44 34.62 32.08C34.54 32.03 34.41 31.93 34.38 31.95C33.21 32.87 32.77 31.16 31.81 31.22C31.58 31.24 31.46 30.83 31.47 30.51C31.52 29.34 31.26 28.27 30.5 27.36C30.28 27.11 30.3 26.81 30.33 26.54C30.45 25.71 30.24 24.95 29.91 24.22C29.78 23.94 29.77 23.69 29.75 23.34ZM37.18 20.52C37.18 20.35 37.14 20.16 37.01 20.21C36.82 20.29 36.61 20.44 36.64 20.72C36.65 20.88 36.72 20.97 36.89 20.97C37.25 20.96 37.15 20.68 37.18 20.52L37.18 20.52ZM35.13 8.74C35.06 8.7 35 8.62 34.93 8.61C34.86 8.6 34.72 8.65 34.71 8.7C34.67 8.87 34.81 8.89 34.93 8.87C35 8.85 35.06 8.79 35.13 8.74ZM36.72 19.05C36.59 19.16 36.61 19.28 36.66 19.41C36.68 19.44 36.72 19.48 36.75 19.51C36.8 19.39 36.85 19.28 36.88 19.16C36.88 19.14 36.77 19.09 36.72 19.05L36.72 19.05ZM21.28 15.3C20.8 15.79 20.42 15.29 20.11 15.05C19.77 14.77 19.77 13.74 20 13.39C20.1 13.24 20.24 13.1 20.32 12.93C20.5 12.53 20.77 12.12 21.19 12.1C21.62 12.08 22.08 12.25 22.5 12.43C22.93 12.62 23.38 14.36 23.14 14.76C23.07 14.86 22.91 14.89 22.79 14.96C22.33 15.22 21.86 15.44 21.27 15.3L21.28 15.3Z" fill="#284855" fill-opacity="1.000000" fill-rule="nonzero"/>
	</g>
</svg>
