<svg width="112.968750" height="22.792969" viewBox="0 0 112.969 22.793" fill="none" xmlns="http://www.w3.org/2000/svg" xmlns:xlink="http://www.w3.org/1999/xlink">
	<desc>
			Created with Pixso.
	</desc>
	<defs/>
	<path id="IndeVets" d="M25.15 8.57Q23.42 10.79 23.42 14.44L23.42 14.64Q23.42 18.28 25.15 20.53Q26.1 21.76 27.34 22.32Q28.38 22.79 29.64 22.79Q31.56 22.79 32.92 21.92Q33.62 21.47 34.17 20.8L34.3 22.5L36.79 22.5L36.79 0L34.08 0L34.08 8.26Q33.51 7.59 32.8 7.15Q31.48 6.35 29.67 6.35Q28.29 6.35 27.17 6.89Q26.02 7.45 25.15 8.57ZM0 22.5L2.81 22.5L2.81 1.17L0 1.17L0 22.5ZM70.47 1.17L64.37 18.76L58.31 1.17L55.25 1.17L63.14 22.5L65.63 22.5L73.54 1.17L70.47 1.17ZM94.9 6.65L94.9 2.81L92.19 2.81L92.19 6.65L89.31 6.65L89.31 8.74L92.19 8.74L92.19 18.57Q92.19 20.59 93.12 21.69Q93.29 21.9 93.5 22.07Q94.38 22.79 95.85 22.79Q96.87 22.79 97.93 22.5L97.93 20.3Q97.11 20.47 96.65 20.47Q95.7 20.47 95.31 20.01Q95.3 20 95.3 20Q94.9 19.52 94.9 18.57L94.9 8.74L97.86 8.74L97.86 6.65L94.9 6.65ZM10.18 8.64L10.09 6.65L7.52 6.65L7.52 22.5L10.23 22.5L10.23 11.2Q10.61 10.44 11.17 9.87Q11.46 9.59 11.79 9.36Q12.08 9.15 12.39 9.01Q13.17 8.65 14.1 8.65Q15.71 8.65 16.48 9.46Q16.49 9.46 16.5 9.47Q17.27 10.29 17.28 12.01L17.28 22.5L19.99 22.5L19.99 12.02Q19.97 8.84 18.38 7.45Q17.13 6.35 14.92 6.35Q13.44 6.35 12.25 6.93Q11.08 7.51 10.18 8.64ZM43.87 21.88Q45.47 22.79 47.57 22.79Q49.94 22.79 51.61 21.7Q52.74 20.97 53.55 19.73L51.89 18.44Q51.24 19.29 50.39 19.84Q50.27 19.92 50.15 19.99Q49.16 20.58 47.72 20.58Q46.6 20.58 45.69 20.13Q44.97 19.77 44.39 19.13Q44.2 18.93 44.04 18.7Q43.07 17.35 43.02 15.35L53.75 15.35L53.75 14.22Q53.75 10.42 52.04 8.39Q51.53 7.79 50.91 7.36Q49.41 6.35 47.24 6.35C45.98 6.35 44.81 6.7 43.73 7.4Q43.29 7.69 42.9 8.03Q41.86 8.95 41.21 10.3Q40.31 12.15 40.31 14.51L40.31 15.01Q40.31 17.94 41.69 19.89Q41.98 20.3 42.33 20.67Q43.03 21.4 43.87 21.88ZM78.21 21.88Q79.8 22.79 81.91 22.79Q84.28 22.79 85.94 21.7Q87.08 20.97 87.89 19.73L86.23 18.44Q85.57 19.29 84.72 19.84Q84.61 19.92 84.49 19.99Q83.49 20.58 82.06 20.58Q80.93 20.58 80.03 20.13Q79.31 19.77 78.72 19.13Q78.53 18.93 78.37 18.7Q77.4 17.35 77.35 15.35L88.09 15.35L88.09 14.22Q88.09 10.42 86.38 8.39Q85.87 7.79 85.24 7.36Q83.75 6.35 81.57 6.35C80.31 6.35 79.14 6.7 78.06 7.4Q77.62 7.69 77.23 8.03Q76.2 8.95 75.54 10.3Q74.64 12.15 74.64 14.51L74.64 15.01Q74.64 17.94 76.02 19.89Q76.31 20.3 76.66 20.67Q77.37 21.4 78.21 21.88ZM109.97 17.18Q110.25 17.65 110.25 18.29Q110.25 18.73 110.09 19.09Q109.87 19.59 109.32 19.95Q108.39 20.58 106.86 20.58Q105.19 20.58 104.17 19.78Q103.74 19.44 103.48 19Q103.12 18.4 103.08 17.62L100.37 17.62Q100.37 18.16 100.49 18.67Q100.68 19.49 101.19 20.23Q101.34 20.44 101.5 20.63Q102.27 21.56 103.49 22.11Q104.95 22.79 106.86 22.79Q109.57 22.79 111.27 21.51Q112.12 20.86 112.54 20.01Q112.96 19.16 112.96 18.1Q112.96 16.89 112.41 16.03Q112.39 15.98 112.36 15.94Q111.75 15.05 110.49 14.42Q109.23 13.79 107.2 13.34Q105.17 12.89 104.39 12.39Q104.06 12.17 103.87 11.87Q103.62 11.46 103.62 10.91Q103.62 10.41 103.81 10Q104.02 9.56 104.45 9.22Q105.29 8.58 106.77 8.58Q107.9 8.58 108.73 9.08Q108.95 9.22 109.15 9.38Q109.77 9.91 109.98 10.57Q110.09 10.92 110.09 11.3L112.82 11.3Q112.82 10.24 112.41 9.36Q111.99 8.45 111.14 7.74Q111.01 7.64 110.88 7.54Q109.26 6.35 106.77 6.35C105.06 6.35 103.66 6.8 102.56 7.7Q101.54 8.54 101.15 9.6Q100.91 10.26 100.91 11Q100.91 12 101.34 12.78Q101.41 12.9 101.49 13.02Q102.07 13.87 103.27 14.48Q104.48 15.1 106.54 15.54Q108.6 15.98 109.43 16.58Q109.77 16.84 109.97 17.18ZM45.71 8.89Q46.4 8.58 47.24 8.58Q48.37 8.58 49.2 9.09Q49.6 9.34 49.93 9.71Q50.93 10.85 51.04 12.91L51.04 13.12L43.11 13.12Q43.37 10.97 44.48 9.77Q45.03 9.19 45.71 8.89ZM80.04 8.89Q80.74 8.58 81.57 8.58Q82.71 8.58 83.53 9.09Q83.94 9.34 84.27 9.71Q85.26 10.85 85.38 12.91L85.38 13.12L77.44 13.12Q77.71 10.97 78.82 9.77Q79.37 9.19 80.04 8.89ZM27.24 18.96Q26.13 17.44 26.13 14.75Q26.13 11.73 27.24 10.19Q27.73 9.51 28.4 9.13Q29.24 8.65 30.35 8.65Q31.58 8.65 32.5 9.19Q33.46 9.75 34.08 10.89L34.08 18.17Q33.48 19.35 32.52 19.93Q31.59 20.49 30.32 20.49Q29.24 20.49 28.42 20.03Q27.74 19.65 27.24 18.96Z" fill="#FFFFFF" fill-opacity="1.000000" fill-rule="evenodd"/>
</svg>
